<?xml version="1.0" encoding="UTF-8" standalone="no"?>
<!DOCTYPE svg PUBLIC "-//W3C//DTD SVG 1.1//EN" "http://www.w3.org/Graphics/SVG/1.1/DTD/svg11.dtd">
<svg version="1.1" xmlns="http://www.w3.org/2000/svg" xmlns:xlink="http://www.w3.org/1999/xlink" preserveAspectRatio="xMidYMid meet" viewBox="0 0 640 640" width="640" height="640"><defs><path d="M96.77 0.4C96.77 0.8 95.22 1.04 93.31 0.91C91.41 0.79 89.85 1 89.85 1.37C89.85 1.74 88.08 2.28 85.91 2.58C81.48 3.19 70.44 6.35 67.8 7.77C66.85 8.28 65.88 8.75 65.64 8.81C63.3 9.39 55.35 13.68 50.32 17.08C46.89 19.4 43.83 21.3 43.52 21.3C43.21 21.3 41.54 22.65 39.82 24.3C29.52 34.12 25 38.7 25 39.28C25 39.64 23.92 41.12 22.6 42.57C19.66 45.78 14.62 53.53 14.62 54.82C14.62 55.34 14.05 56.34 13.36 57.03C11.98 58.41 7.71 67.6 7.71 69.2C7.71 69.74 6.98 71.54 6.09 73.2C-0.25 85.05 -0.2 82.96 0.11 326.97C0.41 570.53 -0.01 553.75 6.25 567.8C6.99 569.46 8.63 573.64 9.89 577.09C11.15 580.54 12.53 583.36 12.96 583.36C13.39 583.36 14.32 584.63 15.03 586.17C17.22 590.94 19.3 594.15 22.21 597.25C23.74 598.89 24.99 600.56 25 600.96C25 601.64 33.3 610.01 39.43 615.51C43.77 619.41 53.7 625.9 58.72 628.12C61.34 629.28 63.68 630.55 63.93 630.95C64.53 631.91 79.06 636.61 83.91 637.41C85.99 637.75 88.24 638.48 88.91 639.02C89.81 639.74 149.65 640 320.3 640C490.95 640 550.79 639.74 551.69 639.02C552.36 638.48 554.61 637.75 556.69 637.41C561.1 636.68 576 631.96 576.67 631.09C576.92 630.76 579.06 629.58 581.44 628.47C592.57 623.29 611.43 607.66 617.35 598.72C618.53 596.94 619.76 595.48 620.09 595.47C620.43 595.47 622.16 592.84 623.94 589.63C625.72 586.42 627.47 583.58 627.84 583.33C628.75 582.7 633.42 571.29 634.17 567.9C634.49 566.42 635.07 565.2 635.44 565.2C635.82 565.2 637.05 561.02 638.18 555.91C638.32 555.29 639.01 552.19 640.24 546.61L640.24 320.06L640.24 93.5C639.04 88.06 638.37 85.04 638.24 84.44C637.14 79.45 635.93 75.17 635.54 74.93C635.17 74.68 634.57 73.51 634.23 72.32C632.75 67.25 628.29 56.75 627.61 56.75C627.2 56.75 626.28 55.49 625.57 53.94C623.38 49.18 621.29 45.96 618.39 42.86C616.86 41.23 615.6 39.55 615.6 39.14C615.6 38.4 607.36 30.18 601.67 25.24C594.94 19.39 579.61 9.96 574.96 8.81C574.72 8.75 573.75 8.28 572.8 7.77C570.16 6.35 559.12 3.19 554.69 2.58C552.52 2.28 550.74 1.75 550.74 1.39C550.74 1.04 549.67 0.65 548.37 0.54C541.46 -0.08 96.77 -0.21 96.77 0.4M291.06 120.92C294.78 122.26 297.83 128.07 297.03 132.29C295.24 141.85 279.8 144.69 275.59 136.24C270.39 125.78 279.52 116.74 291.06 120.92M174.16 153.6C173.87 154.08 174.33 154.47 175.19 154.48C180.86 154.55 190.5 162.68 193.15 169.62C193.96 171.75 194.93 173.49 195.31 173.49C198.58 173.49 198.75 207.58 195.48 209.76C195.09 210.02 194.33 211.52 193.79 213.09C193.26 214.65 192.03 217.05 191.06 218.41C190.09 219.77 189.3 221.24 189.3 221.68C189.3 222.12 187.45 223.8 185.19 225.4C182.93 227 180.89 228.55 180.65 228.85C177.33 232.97 152.11 233.07 152.11 228.96C152.11 228.37 146.67 225.37 145.6 225.37C145.38 225.37 145.2 233.13 145.2 242.6C145.2 257.12 144.98 260.05 143.84 261.19C142.13 262.9 127.13 263.17 125.48 261.52C123.98 260.02 123.98 157.87 125.48 156.37C129.39 152.46 142.6 156.34 142.6 161.39C142.6 163.83 144.45 163.52 146.97 160.65C149.96 157.24 158.07 154.37 166.81 153.62C170.86 153.27 174.28 152.93 174.43 152.86C174.58 152.79 174.46 153.12 174.16 153.6M373.48 155.74C375.14 156.61 377.72 158.64 379.2 160.25C381.74 163.03 386.45 163.18 386.45 160.49C386.45 160.14 388.36 159.04 390.7 158.04C408.05 150.58 423.21 152.54 428.49 162.94C429.39 164.7 430.51 166.42 430.98 166.75C431.52 167.14 431.95 179.06 432.11 198.54C432.13 200.61 432.22 211 432.38 229.7C431.02 230.22 430.26 230.5 430.11 230.56C427.13 231.69 415.33 231.67 413.2 230.53C411.6 229.67 411.53 228.43 411.53 201.68C411.53 171.31 411.18 169.17 406.28 169.17C405.36 169.17 404.61 168.87 404.61 168.52C404.61 168.16 402.86 167.87 400.72 167.87C398.58 167.87 396.83 168.16 396.83 168.52C396.83 168.87 395.76 169.16 394.45 169.16C393.14 169.16 390.22 169.82 387.96 170.63C387.69 170.73 386.32 171.22 383.86 172.1C383.86 189.36 383.86 198.95 383.86 200.87C383.86 234.47 384.91 231.6 372.66 231.36C363.13 231.16 363.99 234.23 363.98 200.64C363.97 171.3 364.08 171.96 358.84 169.19C356.55 167.97 349.27 167.46 349.27 168.52C349.27 168.87 348.17 169.17 346.83 169.17C345.48 169.17 342.57 169.79 340.34 170.54C340.07 170.64 338.72 171.1 336.3 171.92C336.3 189.24 336.3 198.86 336.3 200.78C336.3 228.42 336.23 229.67 334.62 230.53C332.36 231.74 320.48 231.67 317.75 230.42C317.6 230.35 316.87 230.02 315.54 229.42L315.54 193.38L315.54 157.35C316.79 156.68 317.48 156.31 317.62 156.24C319.74 155.11 331.29 155.23 332.46 156.39C332.78 156.71 333.29 158.23 333.61 159.76C334.31 163.17 335.66 163.75 337.83 161.58C344.41 155 365.46 151.55 373.48 155.74M495.17 154.82C502.72 156.83 507.95 160.7 510.16 165.91C510.72 167.21 511.45 168.11 511.79 167.89C513.59 166.78 512.22 184.64 510.32 187.22C509.25 188.67 508.37 190.24 508.37 190.71C508.37 191.78 498.17 196.84 496.01 196.84C495.15 196.84 494.63 197.14 494.86 197.52C495.09 197.9 493.95 198.05 492.32 197.86C490.51 197.65 489.35 197.89 489.35 198.47C489.35 199.62 472.36 199.84 471.91 198.7C471.26 197.05 464.27 196.72 464.29 198.34C464.44 215.08 480.28 222.52 503.39 216.69C505.64 216.13 508.07 215.89 508.79 216.17C510.73 216.91 510.59 225.41 508.59 227.71C503.14 233.97 470.45 234.48 463.69 228.41C462.82 227.63 460.76 226.13 459.1 225.07C457.44 224.02 455.69 222.38 455.21 221.42C454.73 220.47 453.51 218.82 452.51 217.75C447.53 212.43 445.48 189 449 177.67C454.74 159.17 474.6 149.35 495.17 154.82M261.8 156.08C263.35 157.43 263.66 158.64 263.66 163.42C263.66 171.58 262.58 172.62 254.1 172.62C246.93 172.62 237.72 174.15 237.72 175.34C237.72 175.75 237.23 175.99 236.64 175.87C235.8 175.7 235.51 181.68 235.33 203.01C235.31 204.83 235.24 213.95 235.1 230.37C233.94 230.68 233.3 230.85 233.17 230.88C230.32 231.64 217.58 231.51 216.31 230.71C215.45 230.16 215.27 222.01 215.44 192.89C215.46 190.41 215.53 178.04 215.67 155.76C220.02 155.76 222.44 155.76 222.92 155.76C228.5 155.76 230.34 156.06 230.86 157.06C231.76 158.77 232.78 161.6 232.88 162.68C233.28 166.84 234.87 166.92 239.57 163.02C246.53 157.22 246.57 157.2 251.62 155.84C257.94 154.14 259.61 154.18 261.8 156.08M294.29 155.86C296.63 156.75 296.34 229.27 293.98 230.53C291.89 231.65 278.38 231.69 276.63 230.58C275.03 229.57 274.17 161.69 275.71 157.64C276.59 155.33 289.63 154.07 294.29 155.86M475.08 167.41C472.05 168.68 466.58 174.96 467.18 176.5C467.47 177.27 467.37 177.69 466.96 177.43C466.04 176.87 465.17 179.84 465.15 183.54C465.14 186.83 466.81 187.32 478.09 187.32C491.01 187.32 494.49 185.11 494.52 176.85C494.54 171.93 492.01 166.76 490.15 167.91C489.71 168.18 489.35 167.99 489.35 167.49C489.35 166.39 477.66 166.32 475.08 167.41M153.64 168.26C153.51 168.52 151.66 169.32 149.52 170.03C149.26 170.12 147.96 170.55 145.63 171.33L145.4 193.1L145.17 214.86C147.98 215.68 149.54 216.14 149.85 216.23C169.31 221.88 177.6 214.66 177.55 192.08C177.5 173.75 173.22 167.94 159.69 167.83C156.49 167.81 153.77 168 153.64 168.26M236.18 282.59C238.99 286.11 241.54 292.06 240.52 292.69C240 293.01 239.33 294.3 239.01 295.56C235.81 308.32 213.34 301.81 216.13 288.93C217.87 280.83 231.39 276.56 236.18 282.59M332.63 338.59C332.8 383.98 332.62 396.19 331.76 396.73C331.16 397.11 327.25 397.43 323.07 397.44C322.56 397.44 320.02 397.44 315.46 397.45C314.65 395.5 314.2 394.42 314.11 394.21C313.37 392.42 312.61 390.8 312.43 390.6C311.9 390.05 302.62 395.1 303.01 395.73C303.38 396.33 297.37 397.97 291.58 398.84C286.36 399.63 277.19 397.7 274.28 395.19C272.96 394.06 271.51 393.13 271.06 393.13C269.97 393.13 265.39 388.7 265.39 387.66C265.39 387.21 264.5 386.01 263.4 384.99C255.04 377.24 254.79 340.42 263.03 329.64C271.53 318.51 279.15 314.71 291.26 315.55C298.47 316.06 303.64 317.35 305.37 319.09C306.8 320.51 309.95 322.22 311.16 322.22C311.79 322.22 312.08 315.75 312.08 302.04C312.08 290.94 312.36 281.59 312.69 281.26C313.02 280.93 317.59 280.77 322.85 280.9C323.49 280.92 326.67 281 332.41 281.15L332.63 338.59M489.32 317.4C491.44 318.18 493.38 319.11 493.64 319.48C493.9 319.85 495.55 321.03 497.31 322.1C499.08 323.17 501.51 325.29 502.72 326.81C503.93 328.33 505.53 330.21 506.27 330.99C515.08 340.29 514.25 376.65 505.04 384.83C504.02 385.73 503.19 387 503.19 387.65C503.19 388.3 500.95 390.24 498.21 391.98C495.48 393.72 493.05 395.38 492.81 395.67C489.31 399.96 458.42 400.04 455.63 395.76C455.39 395.4 454.03 394.49 452.6 393.75C448.45 391.61 441.95 384.52 440.39 380.44C439.61 378.38 438.67 376.7 438.32 376.7C434.44 376.7 434.24 340.71 438.1 337.84C438.47 337.57 439.7 335.49 440.85 333.21C448.28 318.44 471.44 310.89 489.32 317.4M402.2 317.43C405.61 318.32 408.18 319.74 410.81 322.18C412.87 324.09 414.83 325.66 415.16 325.67C416.25 325.69 419.25 333.48 419.82 337.78C422.28 356.3 403.28 366.66 374.71 362.37C374.45 362.33 373.18 362.14 370.89 361.8C370.89 363.48 370.89 364.42 370.89 364.61C370.89 370.59 374.73 379.29 377.37 379.29C378.01 379.29 379.19 379.93 379.97 380.71C383.45 384.2 411.53 384.36 411.53 380.89C411.53 379.09 416.52 380.18 417.03 382.1C418.72 388.38 417.34 392.64 413.18 394.01C411.32 394.63 409.8 395.39 409.8 395.7C409.8 399.03 375.78 399.15 373.5 395.83C373.25 395.46 371.26 394.31 369.07 393.27C350.51 384.4 345.64 352.27 359.54 330.38C361.55 327.21 368.15 321.35 369.7 321.35C370.04 321.35 371 320.74 371.83 319.99C375.76 316.42 392.82 314.99 402.2 317.43M144.98 317.74C145.57 318.12 146.66 320.54 147.41 323.13C148.15 325.72 149.27 329.01 149.9 330.43C150.52 331.86 152.14 337.5 153.51 342.97C154.87 348.44 156.29 353.05 156.65 353.21C157.01 353.37 157.07 353.9 156.76 354.38C156.46 354.87 156.57 355.52 157 355.82C157.43 356.13 158.7 360.03 159.81 364.5C163.05 377.52 163.37 378.43 164.68 378.43C165.36 378.43 166.16 377.36 166.46 376.05C166.76 374.74 167.9 370.36 168.99 366.32C170.08 362.28 171.23 357.7 171.56 356.16C171.88 354.61 172.45 353.35 172.84 353.35C173.22 353.35 173.73 352.28 173.96 350.97C174.79 346.34 179.12 330.42 179.77 329.57C180.14 329.09 181.07 326.52 181.83 323.84C183.76 317.13 184.15 316.93 194.61 317.22C203.31 317.46 203.57 317.52 203.86 319.53C204.02 320.66 203.77 321.83 203.3 322.12C202.84 322.41 201.01 326.93 199.24 332.16C197.46 337.39 195.61 342.17 195.12 342.78C194.64 343.38 194.47 344.11 194.75 344.39C195.04 344.68 194.68 345.49 193.96 346.21C193.24 346.93 192.85 348.04 193.1 348.68C193.35 349.31 193.2 350.04 192.79 350.3C192.38 350.56 191.19 353.39 190.15 356.6C189.12 359.8 188 362.62 187.66 362.86C187.33 363.1 185.55 367.77 183.71 373.24C181.86 378.71 180.08 383.38 179.76 383.61C179.44 383.85 178.67 385.6 178.06 387.5C177.45 389.41 176.22 392.42 175.33 394.21C175.22 394.42 174.67 395.5 173.7 397.45L164.7 397.45L155.71 397.45C154.7 395.76 154.13 394.83 154.02 394.64C153.09 393.09 151.83 390.27 151.23 388.37C150.63 386.47 149.86 384.72 149.52 384.48C149.19 384.24 147.64 380.15 146.09 375.4C144.54 370.64 142.76 365.93 142.13 364.93C141.51 363.93 139.73 359.26 138.18 354.55C136.64 349.85 135.07 345.8 134.71 345.54C134.35 345.3 132.82 341.4 131.32 336.9C129.82 332.39 127.62 326.65 126.44 324.13C123.25 317.34 123.61 317.03 134.58 317.04C139.7 317.05 144.38 317.37 144.98 317.74M237.55 318.07C239.04 319.56 239.04 394.92 237.55 396.41C235.85 398.11 220.51 397.79 218.55 396.02C216.16 393.85 216.09 320.05 218.48 318.23C220.47 316.72 236.06 316.59 237.55 318.07M378.96 332.18C372.76 335.89 368.01 349.89 372.95 349.89C374.19 349.89 375.21 350.28 375.21 350.75C375.21 354.11 394.41 351.1 399.76 346.91C401.71 345.38 402.29 336 400.48 335.4C399.9 335.2 399.42 334.5 399.42 333.84C399.42 329.69 385.06 328.52 378.96 332.18M286.38 332.23C283.45 333.51 279.23 340.35 279.23 343.81C279.23 344.77 278.84 345.57 278.36 345.57C277.83 345.57 277.5 349.89 277.5 356.81C277.5 363 277.85 368.05 278.29 368.05C278.72 368.05 279.35 369.7 279.69 371.72C280.59 377.09 286.06 382.37 291.57 383.2C296.77 383.98 304.79 383 306.4 381.39C307.08 380.71 308.2 380.15 308.89 380.15C311.87 380.15 312.12 378.12 311.88 355.91C311.87 354.45 311.79 347.16 311.65 334.04C309.06 333.13 307.62 332.62 307.33 332.52C301.98 330.64 290.38 330.48 286.38 332.23M467.48 331.74C464.29 332.7 459.31 338.22 458.14 342.07C455.55 350.67 456.53 372.29 459.66 375.42C460.36 376.12 460.75 376.7 460.51 376.7C460.28 376.7 461.28 377.9 462.75 379.37C471.31 387.93 486.28 383.86 489.41 372.12C489.94 370.12 490.73 367.8 491.16 366.98C492.17 365.04 492.19 347.3 491.18 347.3C490.75 347.3 490.14 345.84 489.82 344.05C487.9 333.59 478.52 328.42 467.48 331.74M512.59 430.77C519 432.58 520.48 434.79 520.48 442.6C520.48 450.91 515.25 475.27 513.47 475.27C513.04 475.27 512.7 475.69 512.7 476.21C512.7 478.24 507.16 489.66 505.23 491.6C504.11 492.74 503.19 494.1 503.19 494.64C503.19 496.22 493.19 506.4 491.64 506.4C489.9 506.4 489.86 505.66 491.45 502.43C492.13 501.05 493.97 495.64 495.54 490.41C497.12 485.17 498.65 480.7 498.95 480.46C499.78 479.81 502.17 469.6 503.2 462.3C504.1 455.92 503.73 450.32 502.21 447.42C500.28 443.75 484.26 442.53 463.04 444.46C454.99 445.19 448.09 445.59 447.7 445.35C446.07 444.34 451 439.89 456.77 437.15C460.18 435.53 463.17 433.95 463.41 433.64C464.01 432.86 470.46 431.17 478.11 429.8C486.96 428.22 505.35 428.73 512.59 430.77M123.98 433.71C124.25 434.16 125.54 435.07 126.84 435.74C134.64 439.75 137.07 441.15 137.85 442.06C138.32 442.62 141.24 444.17 144.33 445.51C147.42 446.84 150.57 448.54 151.32 449.3C152.07 450.05 155.57 451.8 159.1 453.19C162.63 454.57 166.01 456.19 166.6 456.78C167.2 457.38 168.56 458.12 169.63 458.43C172.97 459.41 182.67 463.32 184.51 464.44C185.48 465.02 190.36 466.8 195.35 468.4C200.34 469.99 204.62 471.56 204.86 471.89C205.32 472.51 210.58 474 223.45 477.12C227.73 478.16 231.43 479.28 231.67 479.62C232.14 480.28 252.69 484.38 260.2 485.31C262.82 485.64 265.15 486.2 265.39 486.56C268.72 491.56 380.46 491.56 383.86 486.55C384.09 486.2 386.23 485.66 388.61 485.35C396.12 484.37 416.26 480.27 416.71 479.63C416.95 479.29 420.65 478.16 424.93 477.12C438.11 473.92 443.07 472.51 443.52 471.83C443.76 471.47 448.5 469.74 454.06 467.98C459.62 466.22 464.29 464.5 464.44 464.15C464.76 463.4 481.26 457.11 482.9 457.11C487.69 457.11 488.01 463.97 483.37 467.36C481.65 468.62 479.46 470.35 478.52 471.21C476.01 473.49 461.55 482.72 459.46 483.38C458.47 483.69 456.91 484.63 456 485.47C455.08 486.31 450.94 488.5 446.79 490.34C442.64 492.18 439.45 494.02 439.71 494.42C439.96 494.83 439.68 495.16 439.08 495.16C436.99 495.16 423.63 500.58 423.63 501.43C423.63 501.9 422.85 502.08 421.9 501.83C420.95 501.58 420.17 501.67 420.17 502.04C420.17 502.71 411.84 505.51 404.4 507.33C402.15 507.88 400.51 508.65 400.75 509.05C401 509.45 400.33 509.6 399.27 509.4C398.21 509.2 397.12 509.38 396.85 509.82C396.59 510.25 390.15 511.81 382.55 513.29C374.94 514.76 366.19 516.53 363.1 517.21C342.86 521.66 295.6 521.69 277.06 517.26C274.21 516.58 268.18 515.37 263.66 514.58C252.68 512.67 244.32 510.61 243.69 509.67C243.41 509.25 242.83 508.99 242.4 509.09C241.97 509.19 241.03 509.04 240.31 508.77C239.6 508.49 234.93 507.01 229.94 505.48C224.94 503.94 220.62 502.32 220.33 501.88C220.04 501.43 219.45 501.05 219.03 501.03C218.08 500.98 217.18 500.66 209.62 497.61C206.29 496.27 203.08 495.17 202.48 495.16C201.89 495.16 201.4 494.83 201.4 494.43C201.4 494.03 198.09 492.23 194.05 490.43C190.01 488.63 186.7 486.87 186.7 486.53C186.7 486.19 185.05 485.19 183.03 484.3C181.01 483.42 177.94 481.82 176.2 480.76C174.47 479.7 172.82 479 172.53 479.21C172.24 479.42 172.21 479.33 172.45 479C172.89 478.43 165.78 473.57 164.44 473.52C164.08 473.51 162.65 472.34 161.26 470.93C159.88 469.51 158.29 468.36 157.74 468.36C157.2 468.36 155.22 467.09 153.35 465.54C148.06 461.17 142.74 457.11 142.31 457.11C141.86 457.11 136.84 452.56 132.21 447.96C130.54 446.3 128.25 444.47 127.13 443.89C124.2 442.39 119.92 436.14 120.61 434.36C121.22 432.78 123.17 432.4 123.98 433.71" id="c9g0VC3ZC"></path></defs><g><g><g><use xlink:href="#c9g0VC3ZC" opacity="1" fill="#2c2c2c" fill-opacity="1"></use><g><use xlink:href="#c9g0VC3ZC" opacity="1" fill-opacity="0" stroke="#000000" stroke-width="1" stroke-opacity="0"></use></g></g></g></g></svg>