<svg id="svg" version="1.1" xmlns="http://www.w3.org/2000/svg" xmlns:xlink="http://www.w3.org/1999/xlink" width="400" height="535.0859453993934" viewBox="0, 0, 400,535.0859453993934"><g id="svgg"><path id="path0" d="M194.200 79.621 C 177.943 81.251,158.052 86.603,148.000 92.053 C 147.230 92.470,145.250 93.437,143.600 94.202 C 141.950 94.967,139.835 96.044,138.900 96.596 C 135.777 98.440,133.813 99.572,132.315 100.390 C 131.499 100.836,130.464 101.594,130.015 102.076 C 129.567 102.557,129.200 102.820,129.200 102.661 C 129.200 102.343,125.093 105.073,123.785 106.260 C 123.337 106.667,122.347 107.434,121.585 107.965 C 120.823 108.495,119.930 109.160,119.600 109.442 C 113.752 114.447,104.233 123.569,100.796 127.463 C 98.330 130.256,95.200 134.329,95.200 134.745 C 95.200 134.995,95.050 135.200,94.866 135.200 C 94.683 135.200,93.832 136.235,92.975 137.500 C 92.119 138.765,90.942 140.430,90.360 141.200 C 89.778 141.970,88.964 143.226,88.551 143.991 C 88.138 144.756,87.305 146.088,86.700 146.951 C 86.095 147.814,85.600 148.748,85.600 149.027 C 85.600 149.305,85.455 149.593,85.279 149.667 C 84.205 150.113,75.718 168.857,74.188 174.163 C 73.813 175.462,73.224 177.172,72.879 177.963 C 72.534 178.753,72.283 179.529,72.321 179.686 C 72.359 179.843,72.187 180.473,71.939 181.086 C 71.690 181.699,71.435 182.470,71.372 182.800 C 71.308 183.130,71.041 184.210,70.778 185.200 C 70.515 186.190,70.258 187.270,70.206 187.600 C 70.154 187.930,69.980 188.506,69.820 188.881 C 69.660 189.255,69.646 189.750,69.788 189.981 C 69.931 190.211,69.837 190.400,69.580 190.400 C 69.278 190.400,69.205 190.764,69.373 191.434 C 69.560 192.180,69.499 192.385,69.154 192.172 C 68.887 192.007,68.781 192.046,68.914 192.260 C 69.044 192.471,68.986 193.354,68.784 194.222 C 68.582 195.090,68.310 196.610,68.180 197.600 C 68.050 198.590,67.850 199.850,67.737 200.400 C 66.518 206.307,66.381 214.409,66.510 272.800 C 66.582 305.250,66.753 332.430,66.890 333.200 C 67.026 333.970,67.259 335.590,67.406 336.800 C 67.554 338.010,67.725 339.360,67.786 339.800 C 67.848 340.240,67.921 341.286,67.949 342.124 C 67.977 342.970,68.168 343.543,68.379 343.413 C 68.589 343.283,68.685 343.559,68.594 344.030 C 68.504 344.498,68.711 346.078,69.053 347.541 C 69.396 349.003,69.755 350.650,69.850 351.200 C 69.945 351.750,70.129 352.470,70.259 352.800 C 70.388 353.130,70.552 353.760,70.623 354.200 C 72.230 364.167,81.888 386.162,89.860 398.007 C 91.367 400.246,92.932 402.600,93.337 403.239 C 93.742 403.878,94.237 404.400,94.437 404.400 C 94.637 404.400,94.800 404.599,94.800 404.843 C 94.800 406.634,113.971 426.731,118.308 429.485 C 118.908 429.867,119.671 430.476,120.003 430.839 C 121.894 432.908,132.726 440.044,140.400 444.277 C 150.694 449.955,173.880 458.204,180.500 458.544 C 181.105 458.575,181.601 458.690,181.602 458.800 C 181.603 458.910,182.436 459.048,183.452 459.107 C 184.469 459.167,185.503 459.345,185.750 459.505 C 185.998 459.664,186.740 459.848,187.400 459.913 C 188.060 459.979,189.230 460.102,190.000 460.186 C 195.830 460.827,198.624 460.948,207.800 460.957 C 217.336 460.966,221.749 460.761,224.400 460.185 C 224.950 460.066,226.210 459.887,227.200 459.787 C 228.190 459.687,229.450 459.516,230.000 459.405 C 230.550 459.295,231.698 459.098,232.551 458.969 C 233.404 458.840,234.394 458.664,234.751 458.577 C 235.108 458.491,237.290 457.963,239.600 457.403 C 254.672 453.755,269.643 447.754,279.704 441.327 C 281.191 440.377,282.504 439.600,282.622 439.600 C 282.803 439.600,286.334 437.179,293.278 432.292 C 294.144 431.682,295.334 430.737,295.923 430.192 C 296.511 429.646,297.130 429.200,297.298 429.200 C 297.883 429.200,310.279 416.923,313.251 413.401 C 313.993 412.522,315.105 411.262,315.723 410.601 C 317.626 408.567,322.366 402.149,325.429 397.462 C 327.032 395.008,328.729 392.507,329.199 391.905 C 329.669 391.302,329.923 390.599,329.765 390.343 C 329.596 390.070,329.650 389.983,329.893 390.134 C 330.242 390.350,330.728 389.423,330.731 388.536 C 330.731 388.400,330.908 388.179,331.124 388.045 C 331.866 387.583,338.263 374.148,338.617 372.309 C 338.701 371.874,338.934 371.312,339.136 371.059 C 339.337 370.807,340.082 368.800,340.793 366.600 C 341.503 364.400,342.409 361.610,342.806 360.400 C 344.245 356.016,346.121 347.342,347.002 341.000 C 347.155 339.900,347.467 337.920,347.695 336.600 C 348.301 333.092,348.592 214.669,348.011 207.800 C 346.785 193.308,342.629 176.228,337.595 165.000 C 335.279 159.832,333.445 156.163,333.051 155.906 C 332.803 155.744,332.738 155.609,332.906 155.606 C 333.340 155.597,330.354 150.000,329.915 150.000 C 329.716 150.000,329.651 149.840,329.772 149.645 C 329.893 149.450,329.723 149.068,329.396 148.796 C 329.068 148.524,328.800 148.054,328.800 147.751 C 328.800 147.448,328.485 146.881,328.100 146.490 C 327.715 146.100,327.040 145.098,326.600 144.263 C 326.160 143.429,325.485 142.406,325.100 141.990 C 324.715 141.574,324.400 141.136,324.400 141.018 C 324.400 140.805,321.625 136.788,321.209 136.400 C 321.092 136.290,320.200 135.120,319.227 133.800 C 315.167 128.291,301.172 113.548,298.663 112.138 C 298.137 111.842,295.632 109.792,293.608 108.000 C 293.235 107.670,292.659 107.220,292.329 107.000 C 291.998 106.780,289.258 104.934,286.239 102.899 C 259.873 85.121,225.655 76.466,194.200 79.621 M193.000 182.142 C 208.073 186.817,207.277 186.652,210.003 185.668 C 211.211 185.232,215.350 183.941,219.200 182.799 C 223.050 181.657,227.820 180.200,229.800 179.561 C 234.698 177.981,234.374 177.862,237.243 182.300 C 240.726 187.689,243.892 192.695,244.060 193.079 C 244.197 193.392,245.949 196.098,248.720 200.273 C 249.850 201.976,250.498 202.506,252.348 203.241 C 253.587 203.734,258.110 205.617,262.400 207.427 C 266.690 209.237,271.617 211.302,273.349 212.016 L 276.498 213.315 276.265 215.158 C 276.137 216.171,275.317 222.592,274.443 229.426 L 272.852 241.853 275.088 246.226 C 276.317 248.632,277.521 250.732,277.762 250.894 C 278.003 251.056,278.065 251.191,277.901 251.194 C 277.736 251.197,278.296 252.505,279.146 254.100 C 279.995 255.695,281.197 257.990,281.816 259.200 C 282.436 260.410,283.238 261.850,283.600 262.400 C 285.926 265.939,285.881 267.567,283.400 269.646 C 281.475 271.259,277.352 275.006,269.605 282.184 C 264.858 286.582,265.079 286.224,263.913 291.421 C 263.324 294.049,261.921 300.336,260.796 305.391 C 259.671 310.447,258.717 314.605,258.675 314.632 C 258.634 314.660,252.150 314.978,244.268 315.340 L 229.935 315.998 227.668 317.727 C 226.420 318.678,224.689 319.983,223.821 320.628 C 222.952 321.272,220.216 323.330,217.740 325.200 C 215.264 327.070,212.750 328.960,212.153 329.400 C 211.556 329.840,210.873 330.390,210.634 330.622 C 210.395 330.855,209.456 331.461,208.547 331.970 L 206.894 332.894 204.327 330.947 C 202.914 329.876,201.148 328.550,200.401 328.000 C 199.655 327.450,198.470 326.505,197.769 325.900 C 197.068 325.295,196.308 324.800,196.081 324.800 C 195.853 324.800,195.607 324.628,195.533 324.418 C 195.460 324.208,193.780 322.862,191.800 321.428 C 189.820 319.993,187.840 318.488,187.400 318.083 C 185.232 316.086,185.133 316.070,171.144 315.408 C 163.805 315.061,157.356 314.737,156.814 314.688 C 155.963 314.612,155.764 314.300,155.357 312.400 C 154.913 310.323,153.405 303.540,153.001 301.800 C 151.593 295.739,151.124 293.607,150.974 292.600 C 150.876 291.940,150.502 290.410,150.144 289.200 C 149.785 287.990,149.486 286.775,149.479 286.500 C 149.472 286.225,149.401 286.066,149.320 286.147 C 149.239 286.227,148.590 285.732,147.878 285.047 C 147.165 284.361,142.986 280.531,138.591 276.537 C 127.707 266.644,128.297 267.327,129.156 265.600 C 129.539 264.830,132.406 259.299,135.526 253.308 C 138.871 246.888,141.198 241.961,141.196 241.308 C 141.193 240.699,140.473 234.544,139.596 227.631 C 138.718 220.719,138.000 214.661,138.000 214.169 C 138.000 213.253,139.812 212.366,149.600 208.487 C 151.250 207.834,155.248 206.179,158.484 204.811 L 164.369 202.323 166.465 199.062 C 167.617 197.268,168.524 195.665,168.480 195.500 C 168.436 195.335,168.568 195.200,168.773 195.200 C 168.978 195.200,169.269 194.795,169.419 194.300 C 169.569 193.805,169.998 193.040,170.373 192.600 C 170.747 192.160,173.021 188.694,175.427 184.899 C 177.832 181.103,179.980 178.064,180.200 178.146 C 180.420 178.228,186.180 180.026,193.000 182.142 M198.600 208.985 C 189.887 210.581,181.498 214.728,175.527 220.389 C 174.137 221.707,172.861 222.789,172.690 222.793 C 172.520 222.797,172.205 223.261,171.991 223.824 C 171.777 224.387,171.420 224.736,171.198 224.599 C 170.976 224.462,170.676 224.676,170.531 225.075 C 170.386 225.474,169.778 226.430,169.181 227.200 C 154.047 246.704,157.792 277.229,177.205 292.604 C 197.721 308.852,229.320 305.285,244.590 284.997 C 260.055 264.447,257.248 236.253,238.077 219.598 C 236.690 218.393,235.250 217.240,234.877 217.037 C 234.505 216.834,234.110 216.539,234.000 216.381 C 233.248 215.299,225.019 211.428,221.000 210.266 C 214.322 208.335,205.044 207.805,198.600 208.985 M215.200 227.619 C 217.939 228.411,221.897 230.199,222.409 230.876 C 222.524 231.028,223.334 231.635,224.209 232.225 C 225.084 232.815,225.944 233.546,226.120 233.849 C 226.296 234.152,226.670 234.400,226.952 234.400 C 227.234 234.400,227.706 234.850,228.000 235.400 C 228.294 235.950,228.675 236.400,228.846 236.400 C 229.099 236.400,231.154 239.182,232.490 241.333 C 236.022 247.018,237.175 256.113,235.263 263.192 C 230.068 282.425,207.805 290.839,191.243 279.829 C 188.703 278.140,183.600 273.413,183.600 272.749 C 183.600 272.589,183.375 272.212,183.100 271.912 C 176.166 264.347,176.582 246.723,183.889 238.490 C 184.500 237.802,185.630 236.430,186.400 235.442 C 187.170 234.454,188.099 233.538,188.465 233.407 C 189.028 233.205,189.932 232.569,192.600 230.499 C 197.258 226.885,207.946 225.523,215.200 227.619 M135.779 296.623 C 136.512 297.104,136.880 297.950,137.386 300.323 C 138.380 304.989,139.215 308.532,139.476 309.200 C 139.605 309.530,139.746 310.070,139.788 310.400 C 140.151 313.220,140.498 314.800,140.755 314.800 C 140.924 314.800,140.978 315.366,140.877 316.057 C 140.737 317.011,140.817 317.237,141.208 316.995 C 141.518 316.804,141.625 316.836,141.477 317.076 C 141.341 317.295,141.436 318.178,141.688 319.038 C 141.940 319.897,142.109 320.747,142.064 320.926 C 142.020 321.105,142.193 322.005,142.450 322.926 C 142.707 323.847,142.946 324.870,142.980 325.200 C 143.203 327.359,142.746 327.278,159.171 328.071 L 174.435 328.808 175.545 329.904 C 176.155 330.507,177.002 331.199,177.426 331.443 C 178.119 331.840,175.998 334.091,156.716 353.427 C 144.901 365.275,135.153 374.885,135.053 374.784 C 134.952 374.683,134.305 370.510,133.615 365.512 C 132.924 360.514,132.303 356.104,132.234 355.712 C 132.166 355.320,131.686 351.716,131.168 347.702 L 130.226 340.405 128.925 339.975 C 128.209 339.739,127.303 339.591,126.912 339.647 C 126.520 339.702,125.660 339.626,125.000 339.477 C 124.340 339.328,123.170 339.127,122.400 339.030 C 120.533 338.793,114.902 338.019,113.400 337.791 C 109.934 337.267,97.251 335.552,96.315 335.482 C 95.423 335.414,133.703 296.060,134.714 296.006 C 134.777 296.003,135.256 296.280,135.779 296.623 M300.182 315.500 L 319.660 335.000 317.730 335.277 C 316.668 335.430,314.900 335.667,313.800 335.805 C 312.700 335.944,310.630 336.229,309.200 336.439 C 307.770 336.650,305.790 336.906,304.800 337.008 C 303.810 337.111,301.740 337.401,300.200 337.654 C 296.974 338.182,297.224 338.151,292.908 338.577 C 291.097 338.756,289.696 339.031,289.794 339.190 C 289.891 339.348,289.286 339.409,288.448 339.325 C 286.891 339.169,284.487 339.820,284.941 340.274 C 285.080 340.413,285.022 340.733,284.813 340.985 C 284.603 341.237,284.347 342.513,284.243 343.822 C 284.139 345.130,283.677 348.720,283.216 351.800 C 282.755 354.880,282.455 357.715,282.551 358.100 C 282.647 358.484,282.586 358.885,282.415 358.991 C 282.245 359.096,281.989 360.131,281.846 361.291 C 281.300 365.733,280.358 372.637,280.185 373.461 C 280.035 374.178,277.304 371.643,263.809 358.261 C 254.902 349.427,247.546 342.200,247.462 342.200 C 247.378 342.200,246.699 341.496,245.954 340.635 C 245.209 339.774,243.013 337.475,241.073 335.526 L 237.546 331.982 239.211 330.591 C 240.517 329.499,241.234 329.198,242.538 329.191 C 243.452 329.187,249.420 328.920,255.800 328.598 C 262.180 328.277,268.306 328.011,269.413 328.007 L 271.426 328.000 273.138 320.300 C 274.080 316.065,275.571 309.360,276.453 305.400 C 278.001 298.443,279.034 296.000,280.427 296.000 C 280.580 296.000,289.470 304.775,300.182 315.500 " stroke="none" fill="#f4f4f4" fill-rule="evenodd"></path><path id="path1" d="M295.200 109.306 C 295.200 109.394,295.965 110.074,296.900 110.817 C 297.835 111.560,298.346 111.852,298.036 111.465 C 297.451 110.737,295.200 109.023,295.200 109.306 M107.178 120.700 L 105.800 122.200 107.300 120.822 C 108.696 119.538,108.984 119.200,108.678 119.200 C 108.612 119.200,107.937 119.875,107.178 120.700 M175.048 220.500 C 173.189 222.376,173.561 222.109,176.775 219.264 C 177.312 218.789,177.611 218.400,177.440 218.400 C 177.269 218.400,176.193 219.345,175.048 220.500 M188.200 233.514 C 187.540 234.013,185.028 236.800,185.238 236.800 C 185.346 236.800,186.228 235.990,187.200 235.000 C 188.808 233.361,189.228 232.738,188.200 233.514 M123.578 307.100 L 122.200 308.600 123.700 307.222 C 125.096 305.938,125.384 305.600,125.078 305.600 C 125.012 305.600,124.337 306.275,123.578 307.100 M119.785 310.900 L 117.800 313.000 119.900 311.015 C 121.055 309.923,122.000 308.978,122.000 308.915 C 122.000 308.617,121.629 308.949,119.785 310.900 M114.000 316.600 C 113.028 317.590,112.323 318.400,112.433 318.400 C 112.543 318.400,113.428 317.590,114.400 316.600 C 115.372 315.610,116.077 314.800,115.967 314.800 C 115.857 314.800,114.972 315.610,114.000 316.600 M110.175 320.500 L 109.000 321.800 110.300 320.625 C 111.512 319.530,111.784 319.200,111.475 319.200 C 111.406 319.200,110.821 319.785,110.175 320.500 M238.400 332.925 C 238.400 332.994,238.985 333.579,239.700 334.225 L 241.000 335.400 239.825 334.100 C 238.730 332.888,238.400 332.616,238.400 332.925 M173.978 335.900 L 172.600 337.400 174.100 336.022 C 175.496 334.738,175.784 334.400,175.478 334.400 C 175.412 334.400,174.737 335.075,173.978 335.900 M245.010 339.565 C 246.621 341.533,247.600 342.506,247.600 342.140 C 247.600 341.932,246.840 341.051,245.910 340.181 C 244.981 339.312,244.576 339.034,245.010 339.565 M257.400 352.000 C 258.259 352.880,259.052 353.600,259.162 353.600 C 259.272 353.600,258.659 352.880,257.800 352.000 C 256.941 351.120,256.148 350.400,256.038 350.400 C 255.928 350.400,256.541 351.120,257.400 352.000 M70.856 356.000 C 70.856 356.330,71.011 356.960,71.200 357.400 C 71.417 357.904,71.544 357.978,71.544 357.600 C 71.544 357.270,71.389 356.640,71.200 356.200 C 70.983 355.696,70.856 355.622,70.856 356.000 M262.400 357.000 C 263.146 357.770,263.847 358.400,263.957 358.400 C 264.067 358.400,263.546 357.770,262.800 357.000 C 262.054 356.230,261.353 355.600,261.243 355.600 C 261.133 355.600,261.654 356.230,262.400 357.000 M71.656 358.800 C 71.656 359.130,71.811 359.760,72.000 360.200 C 72.217 360.704,72.344 360.778,72.344 360.400 C 72.344 360.070,72.189 359.440,72.000 359.000 C 71.783 358.496,71.656 358.422,71.656 358.800 M141.178 368.700 L 139.800 370.200 141.300 368.822 C 142.696 367.538,142.984 367.200,142.678 367.200 C 142.612 367.200,141.937 367.875,141.178 368.700 M272.800 367.325 C 272.800 367.394,273.385 367.979,274.100 368.625 L 275.400 369.800 274.225 368.500 C 273.130 367.288,272.800 367.016,272.800 367.325 M136.800 373.000 C 135.828 373.990,135.123 374.800,135.233 374.800 C 135.343 374.800,136.228 373.990,137.200 373.000 C 138.172 372.010,138.877 371.200,138.767 371.200 C 138.657 371.200,137.772 372.010,136.800 373.000 M305.375 421.700 L 304.200 423.000 305.500 421.825 C 306.215 421.179,306.800 420.594,306.800 420.525 C 306.800 420.216,306.470 420.488,305.375 421.700 M302.378 424.700 L 301.000 426.200 302.500 424.822 C 303.896 423.538,304.184 423.200,303.878 423.200 C 303.812 423.200,303.137 423.875,302.378 424.700 M205.712 461.095 C 206.764 461.177,208.384 461.176,209.312 461.092 C 210.240 461.008,209.380 460.941,207.400 460.942 C 205.420 460.943,204.660 461.012,205.712 461.095 " stroke="none" fill="#f8f4f4" fill-rule="evenodd"></path></g></svg>