<svg id="svg" version="1.1" xmlns="http://www.w3.org/2000/svg" xmlns:xlink="http://www.w3.org/1999/xlink" width="400" height="622.4469160768452" viewBox="0, 0, 400,622.4469160768452"><g id="svgg"><path id="path0" d="M193.600 117.236 C 182.617 118.326,165.709 122.120,159.000 124.998 C 158.340 125.282,156.540 125.997,155.000 126.589 C 147.928 129.305,137.221 134.759,132.176 138.215 C 130.183 139.581,128.203 140.809,127.776 140.944 C 127.349 141.080,126.550 141.598,126.000 142.096 C 125.450 142.593,123.290 144.373,121.200 146.051 C 114.926 151.087,110.654 154.949,104.205 161.413 C 99.786 165.843,91.200 176.803,91.200 178.014 C 91.200 178.252,91.048 178.354,90.863 178.239 C 90.678 178.125,90.138 178.789,89.663 179.715 C 88.591 181.805,87.472 183.735,87.178 184.000 C 86.784 184.355,83.350 190.504,81.619 193.955 C 77.787 201.593,73.688 212.157,72.163 218.327 C 71.799 219.797,71.361 221.180,71.190 221.400 C 71.018 221.620,70.822 222.340,70.754 223.000 C 70.686 223.660,70.512 224.380,70.367 224.600 C 69.889 225.325,68.742 231.183,68.997 231.596 C 69.135 231.818,69.079 232.000,68.874 232.000 C 68.506 232.000,68.394 232.627,68.265 235.400 C 68.229 236.170,68.067 236.800,67.904 236.800 C 67.742 236.800,67.625 237.205,67.646 237.700 C 67.666 238.195,67.561 239.680,67.413 241.000 C 67.266 242.320,66.984 245.020,66.788 247.000 C 66.371 251.208,66.513 368.838,66.938 371.800 C 67.096 372.900,67.419 375.150,67.655 376.800 C 67.891 378.450,68.173 380.160,68.280 380.600 C 68.387 381.040,68.462 381.760,68.447 382.200 C 68.431 382.640,68.705 383.990,69.055 385.200 C 69.406 386.410,69.751 387.940,69.822 388.600 C 69.951 389.787,70.264 391.307,70.419 391.500 C 70.464 391.555,70.523 391.765,70.550 391.967 C 70.578 392.168,70.735 392.468,70.900 392.633 C 71.065 392.798,71.200 393.279,71.200 393.701 C 71.200 394.762,76.452 410.456,77.793 413.400 C 81.496 421.535,84.052 426.469,87.317 431.786 C 88.102 433.065,93.323 440.807,94.310 442.156 C 94.810 442.840,95.593 443.985,96.049 444.700 C 96.506 445.415,97.041 446.000,97.240 446.000 C 97.438 446.000,97.600 446.219,97.600 446.488 C 97.600 446.756,98.215 447.611,98.966 448.388 C 101.741 451.257,104.000 453.721,104.000 453.877 C 104.000 454.176,111.597 461.410,115.000 464.350 C 116.100 465.301,117.360 466.392,117.800 466.775 C 119.780 468.499,125.734 472.894,129.200 475.191 C 131.290 476.576,133.405 478.076,133.900 478.524 C 134.395 478.973,134.803 479.173,134.806 478.970 C 134.809 478.766,134.944 478.781,135.106 479.003 C 135.268 479.225,136.390 479.928,137.600 480.566 C 138.810 481.204,140.270 482.052,140.845 482.451 C 141.420 482.850,142.005 483.062,142.145 482.922 C 142.285 482.781,142.400 482.877,142.400 483.133 C 142.400 483.390,142.535 483.564,142.700 483.520 C 142.865 483.476,143.900 483.902,145.000 484.467 C 155.420 489.815,169.985 494.553,182.800 496.762 C 192.478 498.430,194.790 498.600,207.600 498.584 C 222.524 498.565,227.108 498.078,240.800 495.053 C 246.864 493.713,258.574 489.751,265.000 486.864 C 269.775 484.719,276.559 481.178,276.894 480.658 C 277.056 480.406,277.191 480.347,277.194 480.527 C 277.197 480.707,277.696 480.527,278.302 480.127 C 278.908 479.727,279.698 479.220,280.058 479.000 C 283.015 477.193,291.766 471.077,291.933 470.700 C 292.007 470.535,292.311 470.400,292.611 470.400 C 292.910 470.400,293.399 470.050,293.699 469.623 C 293.998 469.196,295.223 468.180,296.421 467.366 C 299.749 465.104,310.223 455.031,314.017 450.444 C 314.997 449.258,316.080 447.998,316.422 447.644 C 318.572 445.421,330.000 428.725,330.000 427.807 C 330.000 427.510,330.165 427.207,330.368 427.133 C 330.889 426.944,336.800 415.210,336.800 414.365 C 336.800 413.981,336.948 413.607,337.128 413.533 C 337.722 413.292,341.482 402.644,343.743 394.800 C 344.347 392.704,345.389 388.143,345.753 386.000 C 345.846 385.450,346.025 384.550,346.150 384.000 C 346.275 383.450,346.468 382.370,346.579 381.600 C 346.690 380.830,347.100 378.130,347.490 375.600 C 348.147 371.341,348.200 366.328,348.200 308.000 C 348.200 238.808,348.315 242.511,345.764 229.639 C 344.473 223.124,341.949 213.960,340.162 209.302 C 336.491 199.735,331.565 189.222,330.036 187.693 C 329.703 187.360,329.395 186.849,329.353 186.558 C 329.310 186.267,328.937 185.527,328.523 184.914 C 328.110 184.301,327.522 183.305,327.218 182.700 C 326.914 182.095,326.515 181.600,326.332 181.600 C 326.150 181.600,326.000 181.375,326.000 181.100 C 325.999 180.667,325.484 179.939,323.606 177.715 C 323.381 177.448,322.988 176.773,322.734 176.215 C 322.480 175.657,322.159 175.200,322.022 175.200 C 321.885 175.200,321.428 174.615,321.006 173.900 C 320.150 172.447,319.761 171.921,318.599 170.643 C 318.158 170.158,317.496 169.300,317.127 168.737 C 314.655 164.965,303.332 153.524,297.600 149.007 C 295.950 147.707,294.510 146.539,294.400 146.412 C 293.863 145.792,288.662 141.969,286.000 140.238 C 284.350 139.165,282.518 137.957,281.929 137.553 C 276.325 133.711,264.991 128.256,255.802 124.979 C 247.424 121.990,236.569 119.243,229.000 118.196 C 227.900 118.044,225.920 117.754,224.600 117.551 C 221.160 117.023,198.107 116.789,193.600 117.236 M222.037 230.957 C 222.607 231.044,224.767 231.335,226.837 231.602 C 228.907 231.870,230.870 232.137,231.200 232.196 C 231.530 232.255,233.600 232.616,235.800 232.999 C 246.626 234.884,260.852 239.594,271.714 244.891 C 273.867 245.941,275.743 246.800,275.883 246.800 C 276.023 246.800,276.421 247.049,276.769 247.353 C 277.116 247.657,278.570 248.502,280.000 249.231 C 282.629 250.572,285.716 252.486,287.663 253.983 C 288.248 254.432,288.861 254.800,289.026 254.800 C 289.190 254.800,289.914 255.250,290.636 255.800 C 291.357 256.350,292.047 256.800,292.169 256.800 C 292.371 256.800,293.372 257.561,294.545 258.606 C 294.795 258.829,295.810 259.634,296.800 260.395 C 297.790 261.157,298.690 261.879,298.800 262.001 C 298.910 262.122,300.710 263.734,302.800 265.583 C 308.944 271.016,315.517 277.835,319.560 282.966 C 320.528 284.195,321.473 285.200,321.660 285.200 C 321.847 285.200,322.000 285.445,322.000 285.744 C 322.000 286.043,322.685 287.078,323.523 288.044 C 324.361 289.010,325.660 290.700,326.411 291.800 C 327.162 292.900,328.128 294.205,328.558 294.700 C 328.988 295.195,329.209 295.600,329.051 295.600 C 328.892 295.600,329.265 296.368,329.881 297.307 C 333.225 302.405,334.850 305.622,334.872 307.182 C 334.890 308.494,334.077 310.401,331.975 313.978 C 330.382 316.689,323.369 327.040,322.947 327.302 C 322.680 327.469,322.050 328.279,321.546 329.102 C 321.042 329.926,320.443 330.798,320.215 331.041 C 319.987 331.283,318.990 332.429,318.000 333.588 C 310.087 342.849,299.064 352.921,290.654 358.575 C 288.754 359.852,287.200 361.055,287.200 361.249 C 287.200 361.442,287.054 361.555,286.876 361.500 C 286.699 361.445,285.394 362.141,283.976 363.046 C 282.559 363.952,280.590 365.202,279.600 365.825 C 250.218 384.308,205.413 390.069,169.400 379.994 C 156.550 376.400,136.205 367.515,131.800 363.575 C 131.360 363.182,130.730 362.801,130.400 362.730 C 130.070 362.658,129.710 362.510,129.600 362.400 C 128.742 361.542,125.591 359.200,125.295 359.200 C 125.091 359.200,123.469 358.030,121.690 356.600 C 119.911 355.170,118.271 354.000,118.047 354.000 C 117.823 354.000,117.496 353.769,117.320 353.486 C 117.144 353.203,116.460 352.560,115.800 352.057 C 107.859 346.003,95.040 332.338,90.608 325.200 C 89.993 324.210,89.240 323.130,88.934 322.800 C 88.628 322.470,87.353 320.580,86.102 318.600 C 84.850 316.620,83.731 314.910,83.613 314.800 C 83.496 314.690,82.725 313.296,81.900 311.702 C 79.793 307.630,79.872 306.731,82.800 301.466 C 84.120 299.092,85.200 296.990,85.200 296.795 C 85.200 296.600,85.446 296.296,85.746 296.120 C 86.046 295.944,86.611 295.170,87.002 294.400 C 87.392 293.630,87.830 292.910,87.975 292.800 C 88.120 292.690,89.301 291.070,90.600 289.200 C 91.899 287.330,93.064 285.710,93.191 285.600 C 93.317 285.490,94.036 284.590,94.789 283.600 C 98.347 278.918,106.697 270.164,110.749 266.867 C 111.740 266.060,113.228 264.770,114.055 264.000 C 116.301 261.908,116.692 261.625,116.957 261.891 C 117.091 262.024,117.200 261.803,117.200 261.400 C 117.200 260.997,117.310 260.777,117.444 260.911 C 117.579 261.045,118.772 260.254,120.096 259.152 C 133.066 248.358,155.461 238.078,175.400 233.766 C 188.430 230.948,212.524 229.496,222.037 230.957 M197.400 256.065 C 187.346 257.394,184.724 257.813,180.111 258.826 C 175.194 259.906,167.385 262.206,164.600 263.394 C 163.940 263.676,161.780 264.580,159.800 265.403 C 155.441 267.216,152.605 268.653,147.600 271.585 C 145.510 272.810,143.329 274.052,142.754 274.344 C 142.179 274.637,141.270 275.265,140.733 275.738 C 140.197 276.212,139.479 276.780,139.139 277.000 C 136.876 278.462,135.250 279.604,134.764 280.073 C 134.454 280.372,133.300 281.321,132.200 282.181 C 127.749 285.663,117.429 296.927,113.175 302.945 C 110.270 307.054,111.306 310.033,118.640 318.662 C 121.330 321.827,130.958 331.600,131.386 331.600 C 131.479 331.600,132.240 332.229,133.078 332.998 C 133.915 333.767,134.713 334.397,134.851 334.398 C 134.988 334.399,135.870 335.124,136.809 336.008 C 137.748 336.893,138.602 337.532,138.706 337.427 C 138.810 337.323,139.189 337.533,139.548 337.894 C 145.519 343.893,166.985 353.614,181.287 356.796 C 205.230 362.121,237.008 359.220,254.000 350.158 C 254.550 349.865,256.100 349.178,257.444 348.631 C 264.458 345.778,276.554 338.001,282.400 332.585 C 292.027 323.667,293.280 322.428,295.929 319.216 C 296.738 318.235,297.670 317.149,298.000 316.803 C 298.330 316.456,299.006 315.639,299.502 314.986 C 299.998 314.334,301.054 312.948,301.850 311.907 C 305.682 306.891,303.476 302.698,289.800 289.000 C 286.940 286.135,283.967 283.254,283.194 282.596 C 280.050 279.923,278.044 278.400,277.666 278.400 C 277.446 278.400,277.207 278.258,277.133 278.085 C 276.941 277.632,270.955 273.489,268.600 272.179 C 267.500 271.568,266.060 270.742,265.400 270.344 C 248.592 260.212,216.692 253.513,197.400 256.065 M213.627 268.202 C 216.492 268.745,217.214 268.924,219.600 269.684 C 225.184 271.463,228.221 273.387,227.020 274.384 C 225.048 276.020,222.542 282.399,222.006 287.146 C 220.386 301.510,230.199 314.560,243.867 316.217 C 246.589 316.547,246.962 316.706,246.491 317.336 C 246.300 317.591,245.903 318.610,245.608 319.600 C 239.004 341.757,214.544 353.337,192.506 344.741 C 190.255 343.863,188.319 342.992,188.204 342.807 C 188.089 342.621,187.187 342.078,186.198 341.599 C 185.209 341.120,184.400 340.565,184.400 340.364 C 184.400 340.164,184.221 340.000,184.003 340.000 C 182.382 340.000,173.200 329.883,173.200 328.097 C 173.200 327.823,173.065 327.598,172.900 327.595 C 172.735 327.593,172.290 326.918,171.912 326.095 C 166.986 315.385,166.328 307.342,169.378 295.113 C 169.766 293.558,172.815 287.532,174.419 285.152 C 180.555 276.047,193.135 268.579,203.235 268.046 C 204.426 267.983,205.490 267.837,205.600 267.721 C 205.805 267.506,211.873 267.870,213.627 268.202 " stroke="none" fill="#f4f4f4" fill-rule="evenodd"></path><path id="path1" d="M129.211 139.820 C 128.447 140.359,127.997 140.799,128.211 140.798 C 128.425 140.797,129.140 140.353,129.800 139.812 C 131.341 138.549,131.005 138.553,129.211 139.820 M107.775 157.700 L 106.600 159.000 107.900 157.825 C 108.615 157.179,109.200 156.594,109.200 156.525 C 109.200 156.216,108.870 156.488,107.775 157.700 M71.996 217.433 C 71.993 217.635,71.720 218.694,71.389 219.787 C 71.057 220.880,70.939 221.600,71.125 221.387 C 71.618 220.826,72.496 217.563,72.228 217.294 C 72.102 217.169,71.998 217.232,71.996 217.433 M208.000 255.620 C 210.090 255.780,213.240 255.900,215.000 255.888 C 218.154 255.866,218.140 255.862,214.000 255.582 C 211.690 255.426,208.540 255.305,207.000 255.314 C 204.384 255.328,204.449 255.348,208.000 255.620 M200.707 255.890 C 201.426 255.979,202.506 255.977,203.107 255.886 C 203.708 255.795,203.120 255.722,201.800 255.724 C 200.480 255.726,199.988 255.801,200.707 255.890 M293.000 257.812 C 293.660 258.353,294.380 258.792,294.600 258.787 C 294.820 258.783,294.505 258.472,293.900 258.097 C 293.295 257.722,292.800 257.276,292.800 257.107 C 292.800 256.938,292.575 256.806,292.300 256.814 C 292.025 256.822,292.340 257.271,293.000 257.812 M324.800 290.000 C 325.270 290.660,325.744 291.200,325.854 291.200 C 325.964 291.200,325.670 290.660,325.200 290.000 C 324.730 289.340,324.256 288.800,324.146 288.800 C 324.036 288.800,324.330 289.340,324.800 290.000 M283.578 331.500 L 282.200 333.000 283.700 331.622 C 285.096 330.338,285.384 330.000,285.078 330.000 C 285.012 330.000,284.337 330.675,283.578 331.500 M138.800 337.557 C 138.800 337.750,139.250 338.203,139.800 338.563 C 140.350 338.924,140.800 339.157,140.800 339.081 C 140.800 339.006,140.350 338.553,139.800 338.075 C 139.250 337.597,138.800 337.363,138.800 337.557 M132.000 363.698 C 132.746 364.418,135.600 366.137,135.600 365.867 C 135.600 365.758,134.655 365.095,133.500 364.394 C 132.345 363.693,131.670 363.380,132.000 363.698 " stroke="none" fill="#f8f4f4" fill-rule="evenodd"></path></g></svg>