<svg id="svg" version="1.1" xmlns="http://www.w3.org/2000/svg" xmlns:xlink="http://www.w3.org/1999/xlink" width="400" height="607.4823053589485" viewBox="0, 0, 400,607.4823053589485"><g id="svgg"><path id="path0" d="M196.138 113.700 C 196.036 113.865,195.343 114.000,194.597 114.000 C 180.283 114.000,151.163 123.202,135.852 132.564 C 134.560 133.354,133.345 134.000,133.152 134.000 C 132.958 134.000,132.800 134.180,132.800 134.400 C 132.800 134.620,132.619 134.800,132.397 134.800 C 131.857 134.800,121.457 141.970,120.800 142.795 C 120.690 142.933,120.211 143.312,119.735 143.636 C 117.041 145.474,101.200 160.792,101.200 161.560 C 101.200 161.802,101.054 162.000,100.875 162.000 C 100.579 162.000,99.719 163.002,95.100 168.726 C 94.275 169.749,93.600 170.814,93.600 171.093 C 93.600 171.372,93.442 171.600,93.248 171.600 C 92.693 171.600,87.799 179.222,84.002 186.000 C 80.944 191.460,77.289 199.750,74.803 206.862 C 73.753 209.867,72.799 212.478,72.683 212.665 C 72.567 212.853,72.346 213.680,72.192 214.503 C 72.037 215.326,71.790 216.000,71.643 216.000 C 71.495 216.000,71.339 216.405,71.295 216.900 C 71.252 217.395,70.938 218.790,70.598 220.000 C 70.258 221.210,69.885 222.740,69.769 223.400 C 69.652 224.060,69.391 225.140,69.188 225.800 C 68.986 226.460,68.836 227.360,68.856 227.800 C 68.899 228.753,68.496 231.227,67.963 233.282 C 66.514 238.872,66.373 245.951,66.488 307.559 C 66.558 345.301,66.744 368.024,66.985 368.400 C 67.197 368.730,67.319 369.491,67.256 370.091 C 67.193 370.691,67.263 371.378,67.411 371.617 C 67.558 371.856,67.750 373.075,67.837 374.326 C 68.053 377.429,68.978 382.385,70.185 386.900 C 70.523 388.165,71.046 390.156,71.346 391.325 C 74.935 405.280,87.949 432.608,93.003 436.803 C 93.331 437.075,93.600 437.506,93.600 437.760 C 93.600 438.014,94.102 438.771,94.716 439.443 C 95.329 440.115,96.376 441.405,97.041 442.310 C 98.894 444.829,103.410 449.756,107.360 453.566 C 109.318 455.455,111.208 457.329,111.560 457.731 C 112.983 459.355,121.485 466.613,123.357 467.800 C 124.051 468.240,125.604 469.349,126.809 470.264 C 129.319 472.170,134.431 475.346,138.800 477.714 C 142.624 479.786,148.739 482.800,149.120 482.800 C 149.280 482.800,150.039 483.135,150.806 483.544 C 151.573 483.953,152.650 484.423,153.200 484.589 C 153.750 484.754,154.740 485.134,155.400 485.434 C 162.463 488.640,188.046 495.161,189.656 494.165 C 189.845 494.048,190.000 494.129,190.000 494.345 C 190.000 494.561,190.820 494.694,191.821 494.641 C 192.823 494.588,193.715 494.662,193.804 494.806 C 194.402 495.774,216.921 495.602,224.000 494.576 C 224.770 494.465,225.670 494.366,226.000 494.356 C 226.791 494.334,229.235 493.879,235.400 492.606 C 255.141 488.528,275.552 479.723,289.800 469.138 C 290.680 468.484,292.607 467.083,294.083 466.025 C 295.559 464.966,296.654 463.987,296.517 463.850 C 296.379 463.712,296.544 463.600,296.882 463.600 C 299.474 463.600,318.586 442.259,325.679 431.444 C 327.283 429.000,328.771 426.875,328.986 426.722 C 329.201 426.569,329.252 426.319,329.100 426.166 C 328.947 426.014,329.291 425.332,329.864 424.650 C 330.735 423.616,337.600 410.142,337.600 409.468 C 337.600 409.349,337.810 408.745,338.066 408.126 C 338.323 407.507,338.564 406.910,338.601 406.800 C 338.638 406.690,338.789 406.285,338.935 405.900 C 339.081 405.515,339.319 404.885,339.465 404.500 C 339.611 404.115,339.749 403.710,339.772 403.600 C 339.794 403.490,339.918 403.220,340.048 403.000 C 342.605 398.662,346.851 379.226,347.999 366.600 C 348.537 360.684,348.538 247.732,348.000 241.800 C 346.820 228.787,343.657 214.793,339.414 203.814 C 337.605 199.133,333.286 189.582,332.806 189.200 C 332.668 189.090,332.318 188.415,332.029 187.700 C 331.740 186.985,331.345 186.400,331.151 186.400 C 330.958 186.400,330.834 186.265,330.876 186.100 C 330.995 185.626,329.192 182.091,328.566 181.571 C 328.254 181.313,328.000 180.854,328.000 180.551 C 328.000 180.248,327.814 180.000,327.587 180.000 C 327.361 180.000,327.061 179.685,326.922 179.300 C 326.496 178.122,321.661 171.146,318.534 167.200 C 312.442 159.510,302.878 149.673,297.145 145.200 C 296.722 144.870,295.706 144.015,294.888 143.300 C 294.070 142.585,293.164 142.000,292.876 142.000 C 292.588 142.000,292.456 141.833,292.582 141.629 C 292.708 141.425,292.404 141.130,291.906 140.975 C 291.408 140.819,290.910 140.558,290.800 140.393 C 289.861 138.990,275.620 130.335,269.415 127.397 C 265.856 125.711,255.970 121.615,255.000 121.424 C 254.780 121.381,252.620 120.697,250.200 119.905 C 241.927 117.196,232.989 115.317,223.000 114.185 C 216.777 113.480,196.500 113.114,196.138 113.700 M302.468 242.283 C 314.504 254.292,314.263 253.505,307.931 260.078 C 288.233 280.525,186.844 381.243,185.599 381.600 C 183.715 382.141,182.229 381.353,179.200 378.209 C 176.346 375.246,152.376 351.266,144.006 343.000 C 141.110 340.140,138.567 337.485,138.356 337.100 C 138.145 336.715,137.708 336.400,137.386 336.400 C 137.064 336.400,136.800 336.224,136.800 336.009 C 136.800 335.793,129.235 328.081,119.990 318.870 C 102.279 301.226,101.900 300.771,102.916 298.374 C 103.417 297.192,110.231 290.000,110.850 290.000 C 111.043 290.000,111.200 289.843,111.200 289.651 C 111.200 289.459,112.231 288.334,113.490 287.151 C 114.750 285.968,117.106 283.613,118.727 281.919 C 121.875 278.627,123.530 277.745,125.675 278.216 C 126.668 278.435,133.221 284.758,155.553 307.048 C 171.286 322.752,184.342 335.600,184.565 335.600 C 184.789 335.600,208.071 312.515,236.302 284.300 C 296.661 223.975,287.688 232.729,289.496 232.410 C 291.977 231.971,292.624 232.463,302.468 242.283 " stroke="none" fill="#f4f4f4" fill-rule="evenodd"></path><path id="path1" d="M205.891 113.089 C 206.601 113.177,207.861 113.179,208.691 113.092 C 209.521 113.005,208.940 112.933,207.400 112.931 C 205.860 112.929,205.181 113.000,205.891 113.089 M198.713 113.495 C 199.876 113.576,201.676 113.576,202.713 113.493 C 203.751 113.411,202.800 113.345,200.600 113.346 C 198.400 113.347,197.551 113.414,198.713 113.495 M212.300 113.495 C 213.455 113.576,215.345 113.576,216.500 113.495 C 217.655 113.414,216.710 113.348,214.400 113.348 C 212.090 113.348,211.145 113.414,212.300 113.495 M305.775 262.100 L 304.600 263.400 305.900 262.225 C 306.615 261.579,307.200 260.994,307.200 260.925 C 307.200 260.616,306.870 260.888,305.775 262.100 M119.785 280.900 L 117.800 283.000 119.900 281.015 C 121.055 279.923,122.000 278.978,122.000 278.915 C 122.000 278.617,121.629 278.949,119.785 280.900 M286.981 280.900 L 285.400 282.600 287.100 281.019 C 288.035 280.149,288.800 279.384,288.800 279.319 C 288.800 279.016,288.452 279.319,286.981 280.900 M277.595 290.300 L 271.800 296.200 277.700 290.405 C 283.181 285.022,283.781 284.400,283.495 284.400 C 283.437 284.400,280.782 287.055,277.595 290.300 M114.200 286.348 C 113.320 287.188,112.246 288.309,111.814 288.838 C 111.381 289.367,112.146 288.726,113.514 287.413 C 115.776 285.241,116.198 284.780,115.900 284.810 C 115.845 284.816,115.080 285.508,114.200 286.348 M135.200 286.925 C 135.200 286.994,135.785 287.579,136.500 288.225 L 137.800 289.400 136.625 288.100 C 135.530 286.888,135.200 286.616,135.200 286.925 M141.800 293.600 C 142.659 294.480,143.452 295.200,143.562 295.200 C 143.672 295.200,143.059 294.480,142.200 293.600 C 141.341 292.720,140.548 292.000,140.438 292.000 C 140.328 292.000,140.941 292.720,141.800 293.600 M268.185 299.700 L 266.200 301.800 268.300 299.815 C 270.251 297.971,270.583 297.600,270.285 297.600 C 270.222 297.600,269.277 298.545,268.185 299.700 M155.400 307.200 C 156.259 308.080,157.052 308.800,157.162 308.800 C 157.272 308.800,156.659 308.080,155.800 307.200 C 154.941 306.320,154.148 305.600,154.038 305.600 C 153.928 305.600,154.541 306.320,155.400 307.200 M112.000 311.000 C 112.746 311.770,113.447 312.400,113.557 312.400 C 113.667 312.400,113.146 311.770,112.400 311.000 C 111.654 310.230,110.953 309.600,110.843 309.600 C 110.733 309.600,111.254 310.230,112.000 311.000 M159.400 311.200 C 160.259 312.080,161.052 312.800,161.162 312.800 C 161.272 312.800,160.659 312.080,159.800 311.200 C 158.941 310.320,158.148 309.600,158.038 309.600 C 157.928 309.600,158.541 310.320,159.400 311.200 M163.000 314.800 C 163.859 315.680,164.652 316.400,164.762 316.400 C 164.872 316.400,164.259 315.680,163.400 314.800 C 162.541 313.920,161.748 313.200,161.638 313.200 C 161.528 313.200,162.141 313.920,163.000 314.800 M250.386 317.500 L 248.200 319.800 250.500 317.614 C 252.637 315.582,252.983 315.200,252.686 315.200 C 252.624 315.200,251.589 316.235,250.386 317.500 M119.200 318.125 C 119.200 318.194,119.785 318.779,120.500 319.425 L 121.800 320.600 120.625 319.300 C 119.530 318.088,119.200 317.816,119.200 318.125 M241.795 326.100 L 236.200 331.800 241.900 326.205 C 247.195 321.008,247.781 320.400,247.495 320.400 C 247.437 320.400,244.872 322.965,241.795 326.100 M173.000 324.800 C 174.306 326.120,175.465 327.200,175.575 327.200 C 175.685 327.200,174.706 326.120,173.400 324.800 C 172.094 323.480,170.935 322.400,170.825 322.400 C 170.715 322.400,171.694 323.480,173.000 324.800 M127.200 326.125 C 127.200 326.194,127.785 326.779,128.500 327.425 L 129.800 328.600 128.625 327.300 C 127.530 326.088,127.200 325.816,127.200 326.125 M177.983 329.700 C 179.641 331.466,180.000 331.784,180.000 331.483 C 180.000 331.419,179.145 330.564,178.100 329.583 L 176.200 327.800 177.983 329.700 M234.378 333.500 L 233.000 335.000 234.500 333.622 C 235.896 332.338,236.184 332.000,235.878 332.000 C 235.812 332.000,235.137 332.675,234.378 333.500 M135.400 334.394 C 136.280 335.380,137.045 336.265,137.100 336.361 C 137.155 336.456,137.286 336.447,137.392 336.342 C 137.497 336.236,136.732 335.351,135.692 334.375 L 133.801 332.600 135.400 334.394 M230.185 337.700 L 228.200 339.800 230.300 337.815 C 232.251 335.971,232.583 335.600,232.285 335.600 C 232.222 335.600,231.277 336.545,230.185 337.700 M139.600 338.600 C 140.346 339.370,141.047 340.000,141.157 340.000 C 141.267 340.000,140.746 339.370,140.000 338.600 C 139.254 337.830,138.553 337.200,138.443 337.200 C 138.333 337.200,138.854 337.830,139.600 338.600 M147.235 346.300 C 147.478 346.685,148.154 347.343,148.738 347.763 C 149.580 348.368,149.514 348.223,148.422 347.063 C 146.905 345.454,146.562 345.233,147.235 346.300 M151.583 350.500 C 153.241 352.266,153.600 352.584,153.600 352.283 C 153.600 352.219,152.745 351.364,151.700 350.383 L 149.800 348.600 151.583 350.500 M214.400 353.400 C 213.428 354.390,212.723 355.200,212.833 355.200 C 212.943 355.200,213.828 354.390,214.800 353.400 C 215.772 352.410,216.477 351.600,216.367 351.600 C 216.257 351.600,215.372 352.410,214.400 353.400 M158.383 357.300 C 160.041 359.066,160.400 359.384,160.400 359.083 C 160.400 359.019,159.545 358.164,158.500 357.183 L 156.600 355.400 158.383 357.300 M210.378 357.500 L 209.000 359.000 210.500 357.622 C 211.325 356.863,212.000 356.188,212.000 356.122 C 212.000 355.816,211.662 356.104,210.378 357.500 M205.978 361.900 L 204.600 363.400 206.100 362.022 C 207.496 360.738,207.784 360.400,207.478 360.400 C 207.412 360.400,206.737 361.075,205.978 361.900 M200.975 366.900 L 199.800 368.200 201.100 367.025 C 202.312 365.930,202.584 365.600,202.275 365.600 C 202.206 365.600,201.621 366.185,200.975 366.900 M168.000 366.925 C 168.000 366.994,168.585 367.579,169.300 368.225 L 170.600 369.400 169.425 368.100 C 168.330 366.888,168.000 366.616,168.000 366.925 M196.000 371.800 C 195.028 372.790,194.323 373.600,194.433 373.600 C 194.543 373.600,195.428 372.790,196.400 371.800 C 197.372 370.810,198.077 370.000,197.967 370.000 C 197.857 370.000,196.972 370.810,196.000 371.800 M174.200 373.200 C 175.059 374.080,175.852 374.800,175.962 374.800 C 176.072 374.800,175.459 374.080,174.600 373.200 C 173.741 372.320,172.948 371.600,172.838 371.600 C 172.728 371.600,173.341 372.320,174.200 373.200 M192.000 375.800 C 191.028 376.790,190.323 377.600,190.433 377.600 C 190.543 377.600,191.428 376.790,192.400 375.800 C 193.372 374.810,194.077 374.000,193.967 374.000 C 193.857 374.000,192.972 374.810,192.000 375.800 M177.600 376.600 C 178.346 377.370,179.047 378.000,179.157 378.000 C 179.267 378.000,178.746 377.370,178.000 376.600 C 177.254 375.830,176.553 375.200,176.443 375.200 C 176.333 375.200,176.854 375.830,177.600 376.600 M107.200 453.800 C 107.946 454.570,108.647 455.200,108.757 455.200 C 108.867 455.200,108.346 454.570,107.600 453.800 C 106.854 453.030,106.153 452.400,106.043 452.400 C 105.933 452.400,106.454 453.030,107.200 453.800 M110.783 457.330 C 111.764 458.359,112.627 459.200,112.702 459.200 C 113.036 459.200,111.349 457.307,110.233 456.430 C 109.415 455.787,109.601 456.090,110.783 457.330 M304.800 456.526 C 304.250 457.021,303.539 457.780,303.219 458.213 C 302.899 458.646,303.394 458.288,304.319 457.419 C 305.835 455.993,306.201 455.575,305.900 455.613 C 305.845 455.620,305.350 456.030,304.800 456.526 M299.775 461.300 L 298.600 462.600 299.900 461.425 C 300.615 460.779,301.200 460.194,301.200 460.125 C 301.200 459.816,300.870 460.088,299.775 461.300 " stroke="none" fill="#f8f4f4" fill-rule="evenodd"></path></g></svg>