<?xml version="1.0" encoding="UTF-8" standalone="no"?>
<!DOCTYPE svg PUBLIC "-//W3C//DTD SVG 1.1//EN" "http://www.w3.org/Graphics/SVG/1.1/DTD/svg11.dtd">
<svg version="1.1" xmlns="http://www.w3.org/2000/svg" xmlns:xlink="http://www.w3.org/1999/xlink" preserveAspectRatio="xMidYMid meet" viewBox="0 0 640 640" width="640" height="640"><defs><path d="M92.04 1.26C89.19 1.67 86.28 2.3 85.56 2.62C84.85 2.95 83.88 3.29 83.41 3.36C82.93 3.44 81.96 3.73 81.25 4.01C80.53 4.27 76.86 5.47 73.06 6.66C65.79 8.95 51.28 16.03 49.64 18.08C49.12 18.75 48.41 19.31 48.06 19.31C45.21 19.31 27.03 36.65 21.85 44.34C20.1 46.93 18.07 49.71 17.36 50.53C14.83 53.36 7.19 69.88 5.66 75.86C4.79 79.18 3.82 82.1 3.5 82.34C-1.25 85.79 -1.12 558.11 3.63 558.11C4.06 558.11 4.41 558.74 4.41 559.51C4.41 561.71 7.86 572.79 8.55 572.79C8.87 572.79 9.22 573.81 9.28 575.06C9.37 576.31 9.95 577.65 10.58 578.06C11.23 578.47 11.36 578.81 10.88 578.84C10.32 578.84 10.32 579.07 10.9 579.48C11.38 579.83 13.06 582.59 14.62 585.64C16.19 588.66 18.07 591.75 18.78 592.46C19.52 593.19 21.05 595.29 22.22 597.15C24.53 600.82 39.99 616.81 41.22 616.81C41.65 616.81 43.14 617.89 44.54 619.19C47.31 621.76 50.61 623.83 55.32 625.99C56.98 626.75 58.73 627.89 59.2 628.52C60.07 629.62 64.36 631.41 70.9 633.37C72.57 633.87 74.12 634.58 74.36 634.97C74.96 635.97 83.97 638.12 92.04 639.25C97.01 639.94 162.64 640.13 325.18 639.92C572.26 639.59 556.03 639.94 566.95 634.95C569.04 634 571.01 633.22 571.33 633.22C572.22 633.22 582.43 628.62 582.93 628C583.16 627.72 585.82 626.16 588.84 624.57C591.87 622.97 594.52 621.15 594.76 620.53C595.02 619.92 595.73 619.41 596.4 619.41C599.4 619.41 619.29 597.97 623.86 589.78C625.24 587.32 626.65 585.12 626.97 584.88C627.84 584.26 631.29 577.37 631.29 576.25C631.29 575.73 632.43 572.86 633.84 569.85C635.22 566.85 637.25 560.57 638.33 555.86C638.46 555.3 639.13 552.45 640.29 547.31C640.47 415.2 640.55 341.81 640.57 327.13C640.75 181.07 640.53 103.95 639.95 98.01C638.95 87.93 635.87 73.7 634.66 73.7C634.23 73.7 633.88 73.12 633.88 72.38C633.88 68.95 622.24 46.13 619.67 44.53C619.13 44.19 617.75 42.55 616.63 40.88C615.51 39.22 612.03 35.42 608.9 32.44C605.77 29.46 602.06 25.86 600.63 24.45C599.21 23.05 597.61 21.88 597.09 21.88C596.55 21.88 595.08 20.91 593.77 19.7C592.49 18.52 588.63 16.08 585.24 14.31C581.83 12.56 578.93 10.83 578.78 10.51C578.41 9.71 558.59 3.38 557.23 3.64C556.65 3.75 556.15 3.49 556.15 3.06C556.15 0.42 109.75 -1.31 92.04 1.26M289.42 106.52C289.81 107.23 291.39 111.89 292.92 116.88C294.45 121.87 295.97 126.14 296.29 126.38C296.61 126.62 297.95 130.51 299.27 135.02C300.59 139.51 302.18 144.24 302.81 145.47C303.44 146.72 303.72 147.97 303.41 148.28C303.11 148.58 303.26 148.81 303.74 148.81C304.21 148.81 305.72 152.77 307.08 157.58C308.44 162.4 310.06 166.82 310.65 167.4C311.23 167.99 311.53 168.66 311.32 168.89C311.08 169.11 311.49 170.41 312.2 171.79C312.94 173.17 313.52 174.92 313.52 175.65C313.52 176.41 313.82 177.31 314.17 177.68C314.53 178.03 314.84 178.59 314.86 178.89C315.01 181.2 317.36 188.8 318.18 189.66C318.74 190.23 320.32 194.59 321.68 199.34C323.04 204.09 324.85 209.33 325.72 211C326.56 212.66 328.44 218.06 329.88 222.98C331.33 227.9 332.95 232.48 333.49 233.13C334.03 233.77 334.12 234.31 333.71 234.31C333.3 234.34 333.36 234.62 333.86 234.96C334.35 235.31 335.99 239.84 337.53 245.04C339.04 250.23 340.62 254.7 341.03 254.98C341.41 255.24 343.21 260.31 345 266.25C346.77 272.18 348.52 277.24 348.88 277.47C349.25 277.71 350.63 281.6 351.95 286.11C353.27 290.62 354.86 295.39 355.53 296.69C356.2 298.01 356.44 299.06 356.07 299.09C355.71 299.09 355.84 299.37 356.38 299.73C356.89 300.08 358.41 304.05 359.72 308.56C361.04 313.08 362.7 317.93 363.44 319.36C364.17 320.78 366.03 326.18 367.6 331.36C369.16 336.55 370.78 341.02 371.17 341.3C371.58 341.58 373.24 346.43 374.88 352.09C376.5 357.75 378.25 362.8 378.74 363.32C379.54 364.14 381.68 370.12 382.24 373.1C382.74 375.71 386.28 385.88 386.82 386.27C387.16 386.51 388.68 390.95 390.19 396.16C391.7 401.34 393.27 405.81 393.71 406.09C394.12 406.35 395.84 411.4 397.57 417.29C399.3 423.19 401.03 428.24 401.44 428.52C401.85 428.8 403.62 433.88 405.39 439.79C407.18 445.73 408.93 450.78 409.3 451.02C409.66 451.26 411.22 455.73 412.75 460.95C414.28 466.18 415.86 470.65 416.25 470.88C416.66 471.12 418.21 475.61 419.72 480.81C421.23 486.04 422.98 491.13 423.61 492.13C424.24 493.1 426.03 498.15 427.56 503.33C429.09 508.54 430.78 513.05 431.3 513.42C431.84 513.76 431.92 514.04 431.51 514.06C431.08 514.06 431.14 514.56 431.62 515.14C432.12 515.75 433.78 520.5 435.31 525.72C436.84 530.95 438.44 535.35 438.85 535.5C442.74 537.02 434.49 537.38 396.53 537.38C393.66 537.38 379.31 537.38 353.48 537.38C352.66 535.18 352.21 533.95 352.12 533.71C351.37 531.7 350.48 528.98 350.18 527.67C349.86 526.37 349.29 525.29 348.93 525.29C348.56 525.29 348 524.23 347.7 522.92C346.57 518.21 341.72 503.27 341.15 502.84C340.85 502.6 339.28 498.13 337.68 492.91C336.06 487.68 334.5 483.21 334.2 482.97C333.9 482.74 332.19 477.9 330.42 472.2C328.63 466.5 326.86 461.45 326.49 460.97C326.13 460.5 324.36 455.45 322.59 449.75C320.79 444.05 319.05 438.99 318.7 438.52C318.36 438.04 316.78 433.57 315.2 428.59C313.65 423.6 312.14 419.32 311.83 419.09C311.55 418.85 309.81 413.8 307.95 407.86C306.09 401.92 304.34 396.87 304.06 396.63C303.63 396.27 299.44 383.61 297.5 376.77C297.17 375.58 296.63 374.42 296.33 374.18C295.68 373.68 290.22 356.95 290.22 355.48C290.22 354.92 289.88 354.34 289.49 354.19C288.73 353.88 282.45 334.86 282.45 332.92C282.45 332.34 282.1 331.88 281.67 331.88C281.26 331.88 280.72 331.19 280.46 330.37C280.2 329.53 278.95 325.36 277.68 321.09C276.43 316.81 274.61 311.63 273.68 309.58C272.73 307.51 270.81 301.94 269.41 297.19C267.98 292.44 266.3 287.71 265.67 286.69C265.03 285.66 263.45 281.12 262.18 276.61C260.88 272.12 259.59 268.23 259.26 268C258.57 267.48 256.5 261.45 253.91 252.43C252.87 248.89 251.73 245.78 251.34 245.54C250.97 245.3 249.26 240.45 247.54 234.77C245.81 229.09 244.1 224.23 243.74 223.99C243.37 223.73 241.75 219.05 240.13 213.59C238.51 208.12 236.89 203.44 236.53 203.18C236.16 202.92 234.45 198.06 232.73 192.38C231 186.71 229.32 181.87 228.95 181.63C228.58 181.4 227.03 176.93 225.49 171.7C223.94 166.48 222.15 161.23 221.48 160.04C220.79 158.85 219.1 154.04 217.72 149.33C216.32 144.63 214.85 140.55 214.44 140.26C214.05 139.98 213.23 138 212.63 135.86C209.86 126.12 207.01 117.75 206.43 117.75C206.08 117.75 205.59 116.67 205.31 115.37C205 114.05 204.21 111.14 203.49 108.87C203.41 108.61 203 107.23 202.22 104.77C228.17 104.9 242.59 104.99 245.47 104.99C282.88 105.18 288.82 105.4 289.42 106.52M440.45 288.48C440.45 491.52 440.9 476.86 435.1 458.49C433.58 453.68 431.84 449.23 431.21 448.6C430.61 447.98 430.09 447 430.09 446.46C430.09 444.87 424.67 428.2 424 427.72C423.65 427.49 421.93 422.63 420.16 416.93C418.38 411.23 416.64 406.37 416.29 406.13C415.94 405.9 414.39 401.62 412.84 396.63C411.28 391.65 409.66 387.13 409.25 386.61C408.84 386.07 407.09 381.22 405.39 375.82C403.68 370.4 402 365.78 401.65 365.54C401.33 365.3 399.56 360.47 397.77 354.77C395.95 349.07 394.22 344.21 393.92 343.97C393.62 343.74 392.28 340.04 390.92 335.77C389.56 331.49 387.53 325.94 386.39 323.44C385.26 320.94 384.34 318.6 384.34 318.26C384.34 317.01 379.63 302.93 379.05 302.52C378.72 302.28 377.04 297.53 375.27 291.94C373.52 286.37 371.73 281.79 371.3 281.79C370.86 281.79 370.52 281.32 370.52 280.73C370.52 279.2 365.14 262.45 364.47 261.93C364.17 261.69 362.44 256.83 360.63 251.13C358.82 245.45 357.07 240.6 356.74 240.36C352.73 237.38 352.38 231.64 352.38 166.67C352.38 162.55 352.38 141.93 352.38 104.79C355.32 104.79 370 104.79 396.43 104.79L440.45 104.79L440.45 288.48M205.82 180.9C206.3 181.2 206.43 181.85 206.13 182.32C205.82 182.82 205.89 183.34 206.28 183.51C206.67 183.66 208.03 187.29 209.32 191.56C210.62 195.84 212.54 201.04 213.58 203.12C214.61 205.21 215.52 207.39 215.61 207.95C216.04 210.84 220.85 224.53 221.78 225.53C222.38 226.15 222.86 227.15 222.86 227.75C222.86 229.22 228.08 244.89 228.93 245.97C229.29 246.45 230.83 250.81 232.34 255.67C233.85 260.55 235.49 264.52 235.99 264.52C236.46 264.52 236.66 265.06 236.42 265.71C236.16 266.38 236.27 267.24 236.66 267.65C237.02 268.08 238.62 272.49 240.18 277.47C241.75 282.46 243.28 286.74 243.59 286.97C243.89 287.21 245.62 292.07 247.45 297.77C249.29 303.47 251.06 308.33 251.38 308.56C251.73 308.8 253.09 312.56 254.45 316.92C255.81 321.28 257.1 324.71 257.36 324.56C257.62 324.41 257.88 325.45 257.92 326.87C257.99 328.3 258.4 329.72 258.87 330.03C259.33 330.33 260.77 334.08 262.09 338.36C263.41 342.63 265.41 348.18 266.56 350.69C267.7 353.19 268.63 355.52 268.63 355.89C268.63 357.16 273.14 370.31 273.71 370.72C274.03 370.96 275.76 375.82 277.53 381.52C279.3 387.22 281.13 392.01 281.59 392.18C282.06 392.34 282.45 392.92 282.45 393.48C282.45 394.02 283.81 398.66 285.47 403.8C285.67 404.43 286.68 407.51 288.5 413.11C288.5 417.25 288.5 437.96 288.5 475.24L288.5 537.38L244.88 537.38L201.27 537.38L201.36 353.69C201.39 243.46 201.42 182.22 201.42 169.97C202.48 173.08 203.08 174.81 203.21 175.16C204.18 178.01 205.37 180.6 205.82 180.9" id="a3lSnEbEr3"></path><path d="M92.04 1.26C89.19 1.67 86.28 2.3 85.56 2.62C84.85 2.95 83.88 3.29 83.41 3.36C82.93 3.44 81.96 3.73 81.25 4.01C80.53 4.27 76.86 5.47 73.06 6.66C65.79 8.95 51.28 16.03 49.64 18.08C49.12 18.75 48.41 19.31 48.06 19.31C45.21 19.31 27.03 36.65 21.85 44.34C20.1 46.93 18.07 49.71 17.36 50.53C14.83 53.36 7.19 69.88 5.66 75.86C4.79 79.18 3.82 82.1 3.5 82.34C-1.25 85.79 -1.12 558.11 3.63 558.11C4.06 558.11 4.41 558.74 4.41 559.51C4.41 561.71 7.86 572.79 8.55 572.79C8.87 572.79 9.22 573.81 9.28 575.06C9.37 576.31 9.95 577.65 10.58 578.06C11.23 578.47 11.36 578.81 10.88 578.84C10.32 578.84 10.32 579.07 10.9 579.48C11.38 579.83 13.06 582.59 14.62 585.64C16.19 588.66 18.07 591.75 18.78 592.46C19.52 593.19 21.05 595.29 22.22 597.15C24.53 600.82 39.99 616.81 41.22 616.81C41.65 616.81 43.14 617.89 44.54 619.19C47.31 621.76 50.61 623.83 55.32 625.99C56.98 626.75 58.73 627.89 59.2 628.52C60.07 629.62 64.36 631.41 70.9 633.37C72.57 633.87 74.12 634.58 74.36 634.97C74.96 635.97 83.97 638.12 92.04 639.25C97.01 639.94 162.64 640.13 325.18 639.92C572.26 639.59 556.03 639.94 566.95 634.95C569.04 634 571.01 633.22 571.33 633.22C572.22 633.22 582.43 628.62 582.93 628C583.16 627.72 585.82 626.16 588.84 624.57C591.87 622.97 594.52 621.15 594.76 620.53C595.02 619.92 595.73 619.41 596.4 619.41C599.4 619.41 619.29 597.97 623.86 589.78C625.24 587.32 626.65 585.12 626.97 584.88C627.84 584.26 631.29 577.37 631.29 576.25C631.29 575.73 632.43 572.86 633.84 569.85C635.22 566.85 637.25 560.57 638.33 555.86C638.46 555.3 639.13 552.45 640.29 547.31C640.47 415.2 640.55 341.81 640.57 327.13C640.75 181.07 640.53 103.95 639.95 98.01C638.95 87.93 635.87 73.7 634.66 73.7C634.23 73.7 633.88 73.12 633.88 72.38C633.88 68.95 622.24 46.13 619.67 44.53C619.13 44.19 617.75 42.55 616.63 40.88C615.51 39.22 612.03 35.42 608.9 32.44C605.77 29.46 602.06 25.86 600.63 24.45C599.21 23.05 597.61 21.88 597.09 21.88C596.55 21.88 595.08 20.91 593.77 19.7C592.49 18.52 588.63 16.08 585.24 14.31C581.83 12.56 578.93 10.83 578.78 10.51C578.41 9.71 558.59 3.38 557.23 3.64C556.65 3.75 556.15 3.49 556.15 3.06C556.15 0.42 109.75 -1.31 92.04 1.26M289.42 106.52C289.81 107.23 291.39 111.89 292.92 116.88C294.45 121.87 295.97 126.14 296.29 126.38C296.61 126.62 297.95 130.51 299.27 135.02C300.59 139.51 302.18 144.24 302.81 145.47C303.44 146.72 303.72 147.97 303.41 148.28C303.11 148.58 303.26 148.81 303.74 148.81C304.21 148.81 305.72 152.77 307.08 157.58C308.44 162.4 310.06 166.82 310.65 167.4C311.23 167.99 311.53 168.66 311.32 168.89C311.08 169.11 311.49 170.41 312.2 171.79C312.94 173.17 313.52 174.92 313.52 175.65C313.52 176.41 313.82 177.31 314.17 177.68C314.53 178.03 314.84 178.59 314.86 178.89C315.01 181.2 317.36 188.8 318.18 189.66C318.74 190.23 320.32 194.59 321.68 199.34C323.04 204.09 324.85 209.33 325.72 211C326.56 212.66 328.44 218.06 329.88 222.98C331.33 227.9 332.95 232.48 333.49 233.13C334.03 233.77 334.12 234.31 333.71 234.31C333.3 234.34 333.36 234.62 333.86 234.96C334.35 235.31 335.99 239.84 337.53 245.04C339.04 250.23 340.62 254.7 341.03 254.98C341.41 255.24 343.21 260.31 345 266.25C346.77 272.18 348.52 277.24 348.88 277.47C349.25 277.71 350.63 281.6 351.95 286.11C353.27 290.62 354.86 295.39 355.53 296.69C356.2 298.01 356.44 299.06 356.07 299.09C355.71 299.09 355.84 299.37 356.38 299.73C356.89 300.08 358.41 304.05 359.72 308.56C361.04 313.08 362.7 317.93 363.44 319.36C364.17 320.78 366.03 326.18 367.6 331.36C369.16 336.55 370.78 341.02 371.17 341.3C371.58 341.58 373.24 346.43 374.88 352.09C376.5 357.75 378.25 362.8 378.74 363.32C379.54 364.14 381.68 370.12 382.24 373.1C382.74 375.71 386.28 385.88 386.82 386.27C387.16 386.51 388.68 390.95 390.19 396.16C391.7 401.34 393.27 405.81 393.71 406.09C394.12 406.35 395.84 411.4 397.57 417.29C399.3 423.19 401.03 428.24 401.44 428.52C401.85 428.8 403.62 433.88 405.39 439.79C407.18 445.73 408.93 450.78 409.3 451.02C409.66 451.26 411.22 455.73 412.75 460.95C414.28 466.18 415.86 470.65 416.25 470.88C416.66 471.12 418.21 475.61 419.72 480.81C421.23 486.04 422.98 491.13 423.61 492.13C424.24 493.1 426.03 498.15 427.56 503.33C429.09 508.54 430.78 513.05 431.3 513.42C431.84 513.76 431.92 514.04 431.51 514.06C431.08 514.06 431.14 514.56 431.62 515.14C432.12 515.75 433.78 520.5 435.31 525.72C436.84 530.95 438.44 535.35 438.85 535.5C442.74 537.02 434.49 537.38 396.53 537.38C393.66 537.38 379.31 537.38 353.48 537.38C352.66 535.18 352.21 533.95 352.12 533.71C351.37 531.7 350.48 528.98 350.18 527.67C349.86 526.37 349.29 525.29 348.93 525.29C348.56 525.29 348 524.23 347.7 522.92C346.57 518.21 341.72 503.27 341.15 502.84C340.85 502.6 339.28 498.13 337.68 492.91C336.06 487.68 334.5 483.21 334.2 482.97C333.9 482.74 332.19 477.9 330.42 472.2C328.63 466.5 326.86 461.45 326.49 460.97C326.13 460.5 324.36 455.45 322.59 449.75C320.79 444.05 319.05 438.99 318.7 438.52C318.36 438.04 316.78 433.57 315.2 428.59C313.65 423.6 312.14 419.32 311.83 419.09C311.55 418.85 309.81 413.8 307.95 407.86C306.09 401.92 304.34 396.87 304.06 396.63C303.63 396.27 299.44 383.61 297.5 376.77C297.17 375.58 296.63 374.42 296.33 374.18C295.68 373.68 290.22 356.95 290.22 355.48C290.22 354.92 289.88 354.34 289.49 354.19C288.73 353.88 282.45 334.86 282.45 332.92C282.45 332.34 282.1 331.88 281.67 331.88C281.26 331.88 280.72 331.19 280.46 330.37C280.2 329.53 278.95 325.36 277.68 321.09C276.43 316.81 274.61 311.63 273.68 309.58C272.73 307.51 270.81 301.94 269.41 297.19C267.98 292.44 266.3 287.71 265.67 286.69C265.03 285.66 263.45 281.12 262.18 276.61C260.88 272.12 259.59 268.23 259.26 268C258.57 267.48 256.5 261.45 253.91 252.43C252.87 248.89 251.73 245.78 251.34 245.54C250.97 245.3 249.26 240.45 247.54 234.77C245.81 229.09 244.1 224.23 243.74 223.99C243.37 223.73 241.75 219.05 240.13 213.59C238.51 208.12 236.89 203.44 236.53 203.18C236.16 202.92 234.45 198.06 232.73 192.38C231 186.71 229.32 181.87 228.95 181.63C228.58 181.4 227.03 176.93 225.49 171.7C223.94 166.48 222.15 161.23 221.48 160.04C220.79 158.85 219.1 154.04 217.72 149.33C216.32 144.63 214.85 140.55 214.44 140.26C214.05 139.98 213.23 138 212.63 135.86C209.86 126.12 207.01 117.75 206.43 117.75C206.08 117.75 205.59 116.67 205.31 115.37C205 114.05 204.21 111.14 203.49 108.87C203.41 108.61 203 107.23 202.22 104.77C228.17 104.9 242.59 104.99 245.47 104.99C282.88 105.18 288.82 105.4 289.42 106.52M440.45 288.48C440.45 491.52 440.9 476.86 435.1 458.49C433.58 453.68 431.84 449.23 431.21 448.6C430.61 447.98 430.09 447 430.09 446.46C430.09 444.87 424.67 428.2 424 427.72C423.65 427.49 421.93 422.63 420.16 416.93C418.38 411.23 416.64 406.37 416.29 406.13C415.94 405.9 414.39 401.62 412.84 396.63C411.28 391.65 409.66 387.13 409.25 386.61C408.84 386.07 407.09 381.22 405.39 375.82C403.68 370.4 402 365.78 401.65 365.54C401.33 365.3 399.56 360.47 397.77 354.77C395.95 349.07 394.22 344.21 393.92 343.97C393.62 343.74 392.28 340.04 390.92 335.77C389.56 331.49 387.53 325.94 386.39 323.44C385.26 320.94 384.34 318.6 384.34 318.26C384.34 317.01 379.63 302.93 379.05 302.52C378.72 302.28 377.04 297.53 375.27 291.94C373.52 286.37 371.73 281.79 371.3 281.79C370.86 281.79 370.52 281.32 370.52 280.73C370.52 279.2 365.14 262.45 364.47 261.93C364.17 261.69 362.44 256.83 360.63 251.13C358.82 245.45 357.07 240.6 356.74 240.36C352.73 237.38 352.38 231.64 352.38 166.67C352.38 162.55 352.38 141.93 352.38 104.79C355.32 104.79 370 104.79 396.43 104.79L440.45 104.79L440.45 288.48M205.82 180.9C206.3 181.2 206.43 181.85 206.13 182.32C205.82 182.82 205.89 183.34 206.28 183.51C206.67 183.66 208.03 187.29 209.32 191.56C210.62 195.84 212.54 201.04 213.58 203.12C214.61 205.21 215.52 207.39 215.61 207.95C216.04 210.84 220.85 224.53 221.78 225.53C222.38 226.15 222.86 227.15 222.86 227.75C222.86 229.22 228.08 244.89 228.93 245.97C229.29 246.45 230.83 250.81 232.34 255.67C233.85 260.55 235.49 264.52 235.99 264.52C236.46 264.52 236.66 265.06 236.42 265.71C236.16 266.38 236.27 267.24 236.66 267.65C237.02 268.08 238.62 272.49 240.18 277.47C241.75 282.46 243.28 286.74 243.59 286.97C243.89 287.21 245.62 292.07 247.45 297.77C249.29 303.47 251.06 308.33 251.38 308.56C251.73 308.8 253.09 312.56 254.45 316.92C255.81 321.28 257.1 324.71 257.36 324.56C257.62 324.41 257.88 325.45 257.92 326.87C257.99 328.3 258.4 329.72 258.87 330.03C259.33 330.33 260.77 334.08 262.09 338.36C263.41 342.63 265.41 348.18 266.56 350.69C267.7 353.19 268.63 355.52 268.63 355.89C268.63 357.16 273.14 370.31 273.71 370.72C274.03 370.96 275.76 375.82 277.53 381.52C279.3 387.22 281.13 392.01 281.59 392.18C282.06 392.34 282.45 392.92 282.45 393.48C282.45 394.02 283.81 398.66 285.47 403.8C285.67 404.43 286.68 407.51 288.5 413.11C288.5 417.25 288.5 437.96 288.5 475.24L288.5 537.38L244.88 537.38L201.27 537.38L201.36 353.69C201.39 243.46 201.42 182.22 201.42 169.97C202.48 173.08 203.08 174.81 203.21 175.16C204.18 178.01 205.37 180.6 205.82 180.9" id="aF1kzQ6OY"></path><path d="M223.14 537.17C235.4 537.3 255.22 537.3 267.19 537.17C279.15 537.04 269.11 536.93 244.88 536.93C220.66 536.93 210.88 537.04 223.14 537.17M374.62 537.17C386.6 537.3 406.23 537.3 418.23 537.17C430.22 537.04 420.41 536.93 396.43 536.93C372.44 536.93 362.64 537.04 374.62 537.17" id="b1neisZy7J"></path><path d="M223.14 537.17C235.4 537.3 255.22 537.3 267.19 537.17C279.15 537.04 269.11 536.93 244.88 536.93C220.66 536.93 210.88 537.04 223.14 537.17M374.62 537.17C386.6 537.3 406.23 537.3 418.23 537.17C430.22 537.04 420.41 536.93 396.43 536.93C372.44 536.93 362.64 537.04 374.62 537.17" id="h4HLYFbT5e"></path></defs><g><g><g><use xlink:href="#a3lSnEbEr3" opacity="1" fill="#2c2c2c" fill-opacity="1"></use><g><use xlink:href="#a3lSnEbEr3" opacity="1" fill-opacity="0" stroke="#000000" stroke-width="1" stroke-opacity="0"></use></g></g><g><use xlink:href="#aF1kzQ6OY" opacity="1" fill="#000000" fill-opacity="0"></use><g><use xlink:href="#aF1kzQ6OY" opacity="1" fill-opacity="0" stroke="#000000" stroke-width="1" stroke-opacity="0"></use></g></g><g><use xlink:href="#b1neisZy7J" opacity="1" fill="#302c2c" fill-opacity="1"></use><g><use xlink:href="#b1neisZy7J" opacity="1" fill-opacity="0" stroke="#000000" stroke-width="1" stroke-opacity="0"></use></g></g><g><use xlink:href="#h4HLYFbT5e" opacity="1" fill="#000000" fill-opacity="0"></use><g><use xlink:href="#h4HLYFbT5e" opacity="1" fill-opacity="0" stroke="#000000" stroke-width="1" stroke-opacity="0"></use></g></g></g></g></svg>