<svg id="svg" version="1.1" xmlns="http://www.w3.org/2000/svg" xmlns:xlink="http://www.w3.org/1999/xlink" width="400" height="391.50442477876106" viewBox="0, 0, 400,391.50442477876106"><g id="svgg"><path id="path0" d="M113.117 92.564 C 111.285 93.217,84.888 119.413,83.865 121.593 C 83.056 123.320,82.998 125.941,83.731 127.710 C 84.115 128.637,94.535 139.295,118.934 163.717 C 154.630 199.446,154.402 199.199,154.386 202.186 C 154.370 205.116,153.978 205.540,118.749 240.708 C 82.832 276.562,83.208 276.153,83.194 279.392 C 83.179 282.535,83.557 282.998,97.623 297.104 C 111.948 311.467,112.428 311.858,115.756 311.858 C 119.116 311.858,118.256 312.645,154.690 276.261 C 190.417 240.584,190.292 240.699,193.174 240.716 C 196.007 240.732,196.284 240.989,231.504 276.271 C 267.465 312.294,266.988 311.858,270.442 311.858 C 273.769 311.858,274.257 311.461,288.568 297.105 C 302.625 283.005,303.015 282.525,303.001 279.392 C 302.986 276.153,303.362 276.562,267.446 240.708 C 234.646 207.965,232.236 205.422,231.715 203.007 C 231.023 199.793,229.427 201.558,267.391 163.557 C 304.917 125.995,303.014 128.086,302.999 124.425 C 302.988 121.649,302.166 120.672,287.914 106.491 C 273.590 92.238,273.357 92.044,270.484 92.037 C 267.465 92.030,268.660 90.929,231.681 127.814 C 194.986 164.418,195.939 163.536,193.097 163.536 C 190.256 163.536,191.211 164.421,154.513 127.803 C 114.788 88.164,117.939 90.846,113.117 92.564 " stroke="none" fill="#e48414" fill-rule="evenodd"></path><path id="path1" d="M231.685 127.520 L 196.991 162.297 231.846 127.609 C 251.016 108.530,266.772 92.881,266.861 92.832 C 266.949 92.783,266.876 92.743,266.700 92.743 C 266.524 92.743,250.767 108.393,231.685 127.520 M97.697 106.814 L 84.071 120.531 97.788 106.904 C 110.536 94.239,111.664 93.097,111.414 93.097 C 111.365 93.097,105.192 99.270,97.697 106.814 M288.142 106.726 C 295.635 114.221,301.846 120.354,301.943 120.354 C 302.041 120.354,295.989 114.221,288.496 106.726 C 281.002 99.230,274.791 93.097,274.694 93.097 C 274.596 93.097,280.648 99.230,288.142 106.726 M154.513 127.788 C 173.397 146.673,188.928 162.124,189.025 162.124 C 189.123 162.124,173.751 146.673,154.867 127.788 C 135.983 108.903,120.453 93.451,120.355 93.451 C 120.258 93.451,135.629 108.903,154.513 127.788 M82.914 124.602 C 82.914 125.283,82.987 125.562,83.076 125.221 C 83.165 124.881,83.165 124.323,83.076 123.982 C 82.987 123.642,82.914 123.920,82.914 124.602 M118.761 163.894 C 137.645 182.779,153.176 198.230,153.273 198.230 C 153.370 198.230,137.999 182.779,119.115 163.894 C 100.231 145.009,84.700 129.558,84.603 129.558 C 84.506 129.558,99.877 145.009,118.761 163.894 M266.812 164.164 C 247.782 183.197,232.217 199.007,232.223 199.296 C 232.231 199.657,232.355 199.600,232.618 199.115 C 232.829 198.726,248.474 182.916,267.385 163.982 C 286.296 145.049,301.688 129.558,301.590 129.558 C 301.491 129.558,285.841 145.130,266.812 164.164 M192.482 163.436 C 192.922 163.521,193.559 163.518,193.898 163.429 C 194.236 163.340,193.876 163.271,193.097 163.275 C 192.319 163.279,192.042 163.352,192.482 163.436 M118.583 240.619 L 84.071 275.221 118.673 240.709 C 150.840 208.624,153.433 206.018,153.185 206.018 C 153.136 206.018,137.565 221.588,118.583 240.619 M267.257 240.531 C 286.238 259.513,301.848 275.044,301.946 275.044 C 302.043 275.044,286.592 259.513,267.611 240.531 C 248.629 221.549,233.019 206.018,232.922 206.018 C 232.824 206.018,248.275 221.549,267.257 240.531 M154.867 276.195 L 120.531 310.619 154.956 276.284 C 186.959 244.364,189.539 241.770,189.291 241.770 C 189.242 241.770,173.751 257.261,154.867 276.195 M231.150 276.283 C 250.132 295.265,265.742 310.796,265.839 310.796 C 265.937 310.796,250.486 295.265,231.504 276.283 C 212.523 257.301,196.913 241.770,196.816 241.770 C 196.718 241.770,212.169 257.301,231.150 276.283 M82.921 279.469 C 82.925 280.248,82.998 280.525,83.082 280.084 C 83.167 279.644,83.164 279.007,83.075 278.668 C 82.986 278.330,82.917 278.690,82.921 279.469 M97.522 297.345 C 104.918 304.743,111.050 310.796,111.147 310.796 C 111.244 310.796,105.272 304.743,97.876 297.345 C 90.480 289.947,84.349 283.894,84.251 283.894 C 84.154 283.894,90.126 289.947,97.522 297.345 M288.140 297.611 L 274.867 310.973 288.230 297.701 C 295.580 290.401,301.593 284.388,301.593 284.338 C 301.593 284.089,300.476 285.191,288.140 297.611 M114.779 312.112 C 115.314 312.193,116.190 312.193,116.726 312.112 C 117.261 312.031,116.823 311.964,115.752 311.964 C 114.681 311.964,114.243 312.031,114.779 312.112 M269.469 312.112 C 270.004 312.193,270.881 312.193,271.416 312.112 C 271.951 312.031,271.513 311.964,270.442 311.964 C 269.372 311.964,268.934 312.031,269.469 312.112 " stroke="none" fill="#dc8414" fill-rule="evenodd"></path></g></svg>