<svg id="svg" version="1.1" xmlns="http://www.w3.org/2000/svg" xmlns:xlink="http://www.w3.org/1999/xlink" width="400" height="338.66231647634584" viewBox="0, 0, 400,338.66231647634584"><g id="svgg"><path id="path0" d="M316.803 63.484 C 316.051 63.806,292.704 86.914,248.450 131.139 C 210.976 168.589,180.735 198.560,180.098 198.879 C 178.604 199.630,175.718 199.629,174.225 198.878 C 173.597 198.563,157.080 182.336,137.520 162.818 C 98.168 123.551,100.665 125.791,96.248 125.791 C 92.131 125.791,91.998 125.891,79.190 138.631 C 65.585 152.162,64.889 153.223,66.858 157.423 C 67.935 159.719,171.698 263.070,173.649 263.789 C 175.588 264.504,179.699 264.342,181.403 263.482 C 183.137 262.607,348.369 97.377,349.129 95.759 C 351.121 91.511,350.686 90.851,336.445 76.567 C 322.089 62.166,321.225 61.590,316.803 63.484 " stroke="none" fill="#e48414" fill-rule="evenodd"></path><path id="path1" d="M318.842 62.876 C 319.335 62.951,320.143 62.951,320.636 62.876 C 321.130 62.802,320.726 62.741,319.739 62.741 C 318.752 62.741,318.348 62.802,318.842 62.876 M336.052 76.183 C 342.780 82.912,348.357 88.418,348.447 88.418 C 348.537 88.418,343.106 82.912,336.378 76.183 C 329.651 69.454,324.073 63.948,323.984 63.948 C 323.894 63.948,329.325 69.454,336.052 76.183 M247.961 131.403 L 180.914 198.532 248.042 131.485 C 284.963 94.609,315.171 64.401,315.171 64.356 C 315.171 64.128,310.297 68.990,247.961 131.403 M265.742 179.853 L 182.871 262.806 265.824 179.935 C 311.448 134.356,348.777 97.027,348.777 96.982 C 348.777 96.754,342.792 102.727,265.742 179.853 M78.465 139.070 L 67.700 149.918 78.548 139.154 C 88.630 129.149,89.543 128.222,89.313 128.222 C 89.267 128.222,84.385 133.104,78.465 139.070 M138.010 163.295 C 157.300 182.586,173.155 198.369,173.245 198.369 C 173.335 198.369,157.626 182.586,138.336 163.295 C 119.046 144.005,103.190 128.222,103.101 128.222 C 103.011 128.222,118.720 144.005,138.010 163.295 M67.011 150.907 C 66.713 151.362,66.529 151.793,66.601 151.865 C 66.674 151.938,66.981 151.566,67.283 151.039 C 67.956 149.866,67.756 149.769,67.011 150.907 M119.250 210.767 C 147.960 239.478,171.525 262.969,171.614 262.969 C 171.704 262.969,148.287 239.478,119.576 210.767 C 90.865 182.055,67.301 158.564,67.211 158.564 C 67.121 158.564,90.539 182.055,119.250 210.767 M176.264 264.508 C 176.758 264.583,177.565 264.583,178.059 264.508 C 178.552 264.433,178.148 264.372,177.162 264.372 C 176.175 264.372,175.771 264.433,176.264 264.508 " stroke="none" fill="#dc8414" fill-rule="evenodd"></path></g></svg>