<svg id="svg" version="1.1" xmlns="http://www.w3.org/2000/svg" xmlns:xlink="http://www.w3.org/1999/xlink" width="400" height="333.8944146901301" viewBox="0, 0, 400,333.8944146901301"><g id="svgg"><path id="path0" d="M194.644 89.544 C 137.276 93.365,91.402 121.132,64.490 168.324 C 60.948 174.534,61.195 175.529,69.392 188.060 C 123.881 271.360,240.720 284.455,312.441 215.302 C 325.208 202.992,341.541 180.648,342.075 174.764 C 342.550 169.528,327.915 148.545,314.316 134.964 C 283.526 104.213,237.377 86.698,194.644 89.544 M211.630 116.000 C 248.500 118.689,281.120 135.135,303.881 162.512 C 312.446 172.814,312.807 174.240,308.359 180.212 C 255.680 250.928,149.917 251.399,96.660 181.155 C 92.447 175.598,92.153 173.294,95.143 169.243 C 118.755 137.243,152.897 118.822,194.032 115.890 C 197.394 115.650,207.722 115.715,211.630 116.000 M197.858 130.555 C 188.438 131.906,182.082 134.391,175.605 139.254 C 154.110 155.393,151.807 186.972,170.741 205.932 C 194.178 229.400,234.150 219.810,244.345 188.273 C 245.797 183.782,245.901 184.105,242.862 183.698 C 232.752 182.345,223.685 175.257,220.067 165.876 C 216.422 156.426,218.333 144.421,224.557 137.673 L 225.306 136.861 223.975 136.081 C 217.044 132.020,205.167 129.507,197.858 130.555 " stroke="none" fill="#e48414" fill-rule="evenodd"></path><path id="path1" d="M193.655 89.587 C 194.205 89.655,195.031 89.653,195.491 89.584 C 195.951 89.514,195.501 89.458,194.491 89.460 C 193.481 89.462,193.105 89.519,193.655 89.587 M208.957 89.587 C 209.507 89.655,210.334 89.653,210.794 89.584 C 211.253 89.514,210.803 89.458,209.793 89.460 C 208.783 89.462,208.407 89.519,208.957 89.587 M188.756 89.887 C 189.137 89.961,189.688 89.958,189.981 89.881 C 190.273 89.805,189.962 89.745,189.288 89.748 C 188.615 89.752,188.376 89.814,188.756 89.887 M214.464 89.887 C 214.845 89.961,215.396 89.958,215.688 89.881 C 215.981 89.805,215.669 89.745,214.996 89.748 C 214.323 89.752,214.083 89.814,214.464 89.887 M185.233 90.188 C 185.528 90.265,186.010 90.265,186.305 90.188 C 186.599 90.111,186.358 90.048,185.769 90.048 C 185.180 90.048,184.939 90.111,185.233 90.188 M217.980 90.188 C 218.275 90.265,218.757 90.265,219.051 90.188 C 219.346 90.111,219.105 90.048,218.516 90.048 C 217.927 90.048,217.686 90.111,217.980 90.188 M270.849 104.514 C 271.270 104.755,271.752 104.952,271.920 104.952 C 272.089 104.952,271.882 104.755,271.461 104.514 C 271.041 104.274,270.559 104.077,270.390 104.077 C 270.222 104.077,270.428 104.274,270.849 104.514 M131.905 104.973 C 131.316 105.296,130.972 105.560,131.140 105.560 C 131.308 105.560,131.928 105.296,132.517 104.973 C 133.106 104.651,133.451 104.387,133.282 104.387 C 133.114 104.387,132.494 104.651,131.905 104.973 M127.544 107.136 C 126.913 107.470,126.396 107.811,126.396 107.894 C 126.396 107.978,126.947 107.765,127.621 107.422 C 128.294 107.078,128.845 106.731,128.845 106.650 C 128.845 106.450,128.843 106.451,127.544 107.136 M276.664 107.253 C 276.664 107.337,277.077 107.620,277.582 107.881 C 278.087 108.142,278.500 108.287,278.500 108.202 C 278.500 108.118,278.087 107.836,277.582 107.575 C 277.077 107.313,276.664 107.169,276.664 107.253 M196.412 115.909 C 197.132 115.974,198.234 115.973,198.860 115.907 C 199.487 115.841,198.898 115.789,197.552 115.790 C 196.205 115.791,195.692 115.845,196.412 115.909 M205.593 115.909 C 206.313 115.974,207.415 115.973,208.042 115.907 C 208.669 115.841,208.080 115.789,206.733 115.790 C 205.386 115.791,204.874 115.845,205.593 115.909 M191.205 116.207 C 191.585 116.280,192.136 116.278,192.429 116.201 C 192.722 116.124,192.410 116.065,191.737 116.068 C 191.064 116.071,190.824 116.134,191.205 116.207 M212.165 116.202 C 212.460 116.279,212.942 116.279,213.236 116.202 C 213.531 116.125,213.290 116.062,212.701 116.062 C 212.112 116.062,211.871 116.125,212.165 116.202 M295.945 119.163 C 295.945 119.247,296.358 119.610,296.863 119.969 C 297.368 120.329,297.781 120.554,297.781 120.470 C 297.781 120.386,297.368 120.023,296.863 119.663 C 296.358 119.304,295.945 119.078,295.945 119.163 M96.844 128.309 L 95.945 129.304 96.940 128.405 C 97.867 127.567,98.075 127.314,97.838 127.314 C 97.786 127.314,97.338 127.762,96.844 128.309 M309.704 130.451 C 310.455 131.251,311.109 131.905,311.158 131.905 C 311.388 131.905,311.145 131.630,309.793 130.362 L 308.340 128.998 309.704 130.451 M93.791 131.064 L 92.272 132.670 93.879 131.152 C 94.763 130.316,95.486 129.593,95.486 129.545 C 95.486 129.316,95.202 129.570,93.791 131.064 M197.169 130.586 C 197.464 130.663,197.946 130.663,198.240 130.586 C 198.535 130.509,198.294 130.446,197.705 130.446 C 197.116 130.446,196.875 130.509,197.169 130.586 M138.256 131.468 C 137.111 132.089,137.181 132.347,138.332 131.752 C 138.837 131.491,139.250 131.212,139.250 131.132 C 139.250 130.935,139.217 130.946,138.256 131.468 M314.461 134.966 C 315.460 135.976,316.347 136.802,316.431 136.802 C 316.515 136.802,315.766 135.976,314.767 134.966 C 313.767 133.956,312.881 133.129,312.797 133.129 C 312.712 133.129,313.461 133.956,314.461 134.966 M85.528 139.327 L 84.009 140.933 85.616 139.415 C 86.500 138.579,87.223 137.856,87.223 137.808 C 87.223 137.580,86.939 137.834,85.528 139.327 M175.658 138.966 L 174.598 139.906 175.746 139.083 C 176.760 138.355,177.090 138.026,176.806 138.026 C 176.757 138.026,176.241 138.449,175.658 138.966 M125.937 139.124 L 125.019 139.913 126.014 139.255 C 126.561 138.893,127.008 138.537,127.008 138.464 C 127.008 138.235,126.879 138.315,125.937 139.124 M318.885 139.633 C 320.154 140.984,320.428 141.227,320.428 140.997 C 320.428 140.948,319.774 140.294,318.975 139.543 L 317.521 138.179 318.885 139.633 M278.194 139.055 C 278.194 139.140,278.607 139.503,279.112 139.862 C 279.617 140.222,280.031 140.447,280.031 140.363 C 280.031 140.279,279.617 139.916,279.112 139.556 C 278.607 139.197,278.194 138.971,278.194 139.055 M82.766 142.387 L 81.867 143.382 82.862 142.483 C 83.409 141.989,83.856 141.541,83.856 141.488 C 83.856 141.252,83.604 141.460,82.766 142.387 M170.610 143.305 L 168.783 145.218 170.696 143.391 C 171.748 142.387,172.609 141.526,172.609 141.479 C 172.609 141.252,172.307 141.528,170.610 143.305 M321.041 142.100 C 321.041 142.153,321.488 142.601,322.035 143.095 L 323.030 143.994 322.131 142.999 C 321.293 142.072,321.041 141.864,321.041 142.100 M290.130 148.585 C 290.701 149.174,291.237 149.656,291.321 149.656 C 291.405 149.656,291.007 149.174,290.436 148.585 C 289.865 147.995,289.329 147.513,289.245 147.513 C 289.161 147.513,289.559 147.995,290.130 148.585 M113.526 148.967 L 112.471 150.115 113.619 149.060 C 114.250 148.480,114.767 147.964,114.767 147.912 C 114.767 147.679,114.508 147.899,113.526 148.967 M295.792 153.940 C 297.807 155.960,299.524 157.613,299.608 157.613 C 299.692 157.613,298.113 155.960,296.098 153.940 C 294.083 151.920,292.366 150.268,292.282 150.268 C 292.198 150.268,293.777 151.920,295.792 153.940 M108.334 153.864 L 105.126 157.154 108.416 153.946 C 111.472 150.966,111.845 150.574,111.624 150.574 C 111.579 150.574,110.099 152.054,108.334 153.864 M332.058 156.083 C 332.418 156.588,332.781 157.001,332.865 157.001 C 332.949 157.001,332.724 156.588,332.364 156.083 C 332.005 155.578,331.642 155.164,331.557 155.164 C 331.473 155.164,331.699 155.578,332.058 156.083 M70.155 158.761 C 69.363 159.905,69.105 160.367,69.260 160.367 C 69.332 160.367,69.755 159.816,70.201 159.143 C 71.106 157.775,71.067 157.444,70.155 158.761 M103.276 159.220 L 102.066 160.520 103.366 159.310 C 104.576 158.185,104.808 157.919,104.576 157.919 C 104.526 157.919,103.941 158.504,103.276 159.220 M301.148 159.602 C 301.719 160.191,302.255 160.673,302.339 160.673 C 302.423 160.673,302.025 160.191,301.454 159.602 C 300.883 159.013,300.347 158.531,300.262 158.531 C 300.178 158.531,300.577 159.013,301.148 159.602 M157.723 174.751 C 157.723 176.350,157.775 177.005,157.838 176.205 C 157.901 175.406,157.901 174.097,157.838 173.298 C 157.775 172.498,157.723 173.152,157.723 174.751 M311.012 174.139 C 311.012 174.728,311.075 174.969,311.152 174.675 C 311.229 174.380,311.229 173.898,311.152 173.604 C 311.075 173.309,311.012 173.550,311.012 174.139 M229.739 178.448 C 230.119 178.908,231.982 180.080,231.982 179.859 C 231.982 179.788,231.396 179.343,230.681 178.872 C 229.966 178.400,229.542 178.209,229.739 178.448 M232.900 180.410 C 232.900 180.620,234.774 181.549,234.914 181.409 C 234.980 181.342,234.554 181.059,233.967 180.779 C 233.380 180.499,232.900 180.333,232.900 180.410 M243.688 183.838 C 243.982 183.915,244.464 183.915,244.759 183.838 C 245.054 183.761,244.813 183.698,244.223 183.698 C 243.634 183.698,243.393 183.761,243.688 183.838 M335.541 187.070 C 334.488 188.857,334.419 189.010,334.956 188.370 C 335.577 187.630,336.113 186.687,335.913 186.687 C 335.832 186.687,335.665 186.859,335.541 187.070 M301.894 187.988 L 300.995 188.982 301.989 188.084 C 302.536 187.589,302.984 187.142,302.984 187.089 C 302.984 186.852,302.731 187.061,301.894 187.988 M101.607 187.395 C 101.607 187.448,102.054 187.895,102.601 188.390 L 103.596 189.288 102.697 188.294 C 101.859 187.367,101.607 187.158,101.607 187.395 M299.147 191.048 L 297.628 192.655 299.235 191.136 C 300.728 189.725,300.982 189.441,300.754 189.441 C 300.705 189.441,299.982 190.164,299.147 191.048 M105.585 191.737 C 106.670 192.831,107.626 193.726,107.710 193.726 C 107.794 193.726,106.976 192.831,105.891 191.737 C 104.807 190.643,103.851 189.748,103.767 189.748 C 103.683 189.748,104.501 190.643,105.585 191.737 M332.976 190.972 C 332.617 191.477,332.391 191.890,332.476 191.890 C 332.560 191.890,332.923 191.477,333.282 190.972 C 333.642 190.467,333.867 190.054,333.783 190.054 C 333.699 190.054,333.336 190.467,332.976 190.972 M72.533 193.114 C 72.892 193.619,73.255 194.032,73.339 194.032 C 73.423 194.032,73.198 193.619,72.839 193.114 C 72.479 192.609,72.116 192.196,72.032 192.196 C 71.948 192.196,72.173 192.609,72.533 193.114 M330.834 194.032 C 330.474 194.537,330.249 194.950,330.333 194.950 C 330.417 194.950,330.780 194.537,331.140 194.032 C 331.500 193.527,331.725 193.114,331.641 193.114 C 331.557 193.114,331.194 193.527,330.834 194.032 M111.400 197.552 C 112.485 198.646,113.441 199.541,113.525 199.541 C 113.609 199.541,112.791 198.646,111.706 197.552 C 110.622 196.458,109.666 195.562,109.582 195.562 C 109.497 195.562,110.316 196.458,111.400 197.552 M291.802 198.393 L 290.283 200.000 291.890 198.481 C 293.383 197.070,293.637 196.787,293.409 196.787 C 293.360 196.787,292.637 197.510,291.802 198.393 M164.550 198.627 C 164.850 199.135,165.416 199.927,165.807 200.387 C 166.198 200.848,166.010 200.432,165.389 199.464 C 164.212 197.630,163.602 197.022,164.550 198.627 M114.155 199.943 C 114.155 199.995,114.602 200.443,115.149 200.937 L 116.144 201.836 115.245 200.842 C 114.407 199.914,114.155 199.706,114.155 199.943 M233.347 206.350 L 231.829 207.957 233.435 206.438 C 234.319 205.603,235.042 204.880,235.042 204.832 C 235.042 204.603,234.759 204.857,233.347 206.350 M169.855 205.452 C 169.855 205.504,170.302 205.952,170.849 206.446 L 171.844 207.345 170.945 206.350 C 170.107 205.423,169.855 205.215,169.855 205.452 M319.955 207.575 L 318.745 208.875 320.046 207.666 C 320.761 207.000,321.347 206.415,321.347 206.365 C 321.347 206.133,321.080 206.365,319.955 207.575 M84.621 208.110 C 85.279 208.783,85.886 209.334,85.970 209.334 C 86.054 209.334,85.585 208.783,84.927 208.110 C 84.270 207.437,83.663 206.886,83.579 206.886 C 83.495 206.886,83.964 207.437,84.621 208.110 M278.041 209.514 L 277.123 210.303 278.118 209.645 C 278.665 209.283,279.112 208.927,279.112 208.854 C 279.112 208.625,278.983 208.705,278.041 209.514 M126.090 209.446 C 126.090 209.530,126.503 209.893,127.008 210.252 C 127.513 210.612,127.927 210.837,127.927 210.753 C 127.927 210.669,127.513 210.306,127.008 209.946 C 126.503 209.587,126.090 209.362,126.090 209.446 M314.303 213.542 L 310.482 217.445 314.384 213.624 C 316.530 211.522,318.286 209.766,318.286 209.722 C 318.286 209.502,317.852 209.918,314.303 213.542 M89.671 213.466 C 91.263 215.065,92.635 216.373,92.719 216.373 C 92.804 216.373,91.569 215.065,89.977 213.466 C 88.385 211.867,87.013 210.559,86.929 210.559 C 86.845 210.559,88.079 211.867,89.671 213.466 M221.882 214.384 C 221.125 214.790,220.614 215.128,220.747 215.135 C 221.072 215.154,223.412 213.951,223.412 213.766 C 223.412 213.563,223.425 213.558,221.882 214.384 M95.167 218.592 C 96.435 219.943,96.710 220.186,96.710 219.957 C 96.710 219.907,96.056 219.253,95.256 218.503 L 93.803 217.138 95.167 218.592 M308.325 219.204 L 307.116 220.505 308.416 219.295 C 309.626 218.170,309.858 217.904,309.626 217.904 C 309.576 217.904,308.991 218.489,308.325 219.204 M198.244 219.038 C 198.625 219.111,199.175 219.109,199.468 219.032 C 199.761 218.955,199.449 218.896,198.776 218.899 C 198.103 218.902,197.863 218.965,198.244 219.038 M204.977 219.038 C 205.357 219.111,205.908 219.109,206.201 219.032 C 206.494 218.955,206.182 218.896,205.509 218.899 C 204.836 218.902,204.596 218.965,204.977 219.038 M113.002 232.663 C 113.911 233.435,115.685 234.543,115.685 234.338 C 115.685 234.268,114.893 233.702,113.925 233.081 C 112.957 232.460,112.542 232.272,113.002 232.663 M214.308 233.111 C 214.602 233.188,215.084 233.188,215.379 233.111 C 215.673 233.034,215.432 232.971,214.843 232.971 C 214.254 232.971,214.013 233.034,214.308 233.111 M192.735 233.422 C 193.116 233.495,193.667 233.493,193.959 233.416 C 194.252 233.339,193.940 233.280,193.267 233.283 C 192.594 233.286,192.354 233.349,192.735 233.422 M210.486 233.422 C 210.866 233.495,211.417 233.493,211.710 233.416 C 212.002 233.339,211.691 233.280,211.018 233.283 C 210.344 233.286,210.105 233.349,210.486 233.422 M199.785 233.740 C 201.182 233.797,203.385 233.796,204.682 233.739 C 205.978 233.682,204.836 233.635,202.142 233.636 C 199.449 233.636,198.388 233.683,199.785 233.740 M287.758 234.771 C 286.715 235.439,286.377 235.888,287.299 235.381 C 288.001 234.995,289.101 234.145,288.906 234.139 C 288.822 234.136,288.305 234.421,287.758 234.771 M275.363 241.950 C 274.219 242.571,274.289 242.829,275.440 242.234 C 275.945 241.973,276.358 241.694,276.358 241.614 C 276.358 241.417,276.325 241.428,275.363 241.950 M128.539 241.927 C 128.539 242.131,133.473 244.594,133.609 244.458 C 133.669 244.398,132.553 243.770,131.129 243.064 C 129.704 242.358,128.539 241.846,128.539 241.927 M270.237 244.529 C 269.648 244.852,269.304 245.116,269.472 245.116 C 269.640 245.116,270.260 244.852,270.849 244.529 C 271.438 244.207,271.783 243.943,271.614 243.943 C 271.446 243.943,270.826 244.207,270.237 244.529 M186.764 259.431 C 187.058 259.508,187.540 259.508,187.835 259.431 C 188.129 259.354,187.888 259.291,187.299 259.291 C 186.710 259.291,186.469 259.354,186.764 259.431 M216.450 259.431 C 216.744 259.508,217.226 259.508,217.521 259.431 C 217.816 259.354,217.575 259.291,216.985 259.291 C 216.396 259.291,216.155 259.354,216.450 259.431 M190.283 259.742 C 190.662 259.815,191.282 259.815,191.660 259.742 C 192.039 259.669,191.729 259.609,190.972 259.609 C 190.214 259.609,189.904 259.669,190.283 259.742 M212.624 259.742 C 213.003 259.815,213.623 259.815,214.002 259.742 C 214.380 259.669,214.070 259.609,213.313 259.609 C 212.555 259.609,212.246 259.669,212.624 259.742 M196.251 260.057 C 197.050 260.120,198.359 260.120,199.158 260.057 C 199.958 259.994,199.304 259.942,197.705 259.942 C 196.106 259.942,195.451 259.994,196.251 260.057 M205.126 260.057 C 205.926 260.120,207.234 260.120,208.034 260.057 C 208.833 259.994,208.179 259.942,206.580 259.942 C 204.981 259.942,204.327 259.994,205.126 260.057 " stroke="none" fill="#dc8414" fill-rule="evenodd"></path></g></svg>