<svg id="svg" version="1.1" xmlns="http://www.w3.org/2000/svg" xmlns:xlink="http://www.w3.org/1999/xlink" width="400" height="391.39013452914793" viewBox="0, 0, 400,391.39013452914793"><g id="svgg"><path id="path0" d="M145.471 102.454 C 112.928 119.875,112.646 120.045,112.646 122.332 C 112.646 123.269,112.910 124.025,113.453 124.637 C 114.344 125.643,175.373 158.489,176.949 158.811 C 180.399 159.517,181.101 157.949,181.234 149.253 L 181.345 142.002 182.517 140.956 C 185.030 138.712,199.007 140.166,209.285 143.741 C 255.777 159.911,268.937 216.647,234.026 250.404 C 195.782 287.382,131.976 264.589,125.540 211.650 C 125.048 207.598,124.586 206.593,122.618 205.290 L 121.130 204.305 108.483 204.194 C 89.643 204.030,88.969 204.433,90.171 215.150 C 100.032 303.066,211.726 335.860,267.140 267.110 C 319.390 202.285,274.494 107.948,189.733 104.460 C 183.369 104.198,183.307 104.188,182.330 103.212 L 181.345 102.228 181.157 95.150 C 180.953 87.483,180.865 87.050,179.347 86.265 C 177.527 85.324,177.017 85.567,145.471 102.454 " stroke="none" fill="#e48414" fill-rule="evenodd"></path><path id="path1" d="M181.315 95.067 C 181.315 98.717,181.368 100.211,181.433 98.386 C 181.498 96.561,181.498 93.574,181.433 91.749 C 181.368 89.924,181.315 91.417,181.315 95.067 M166.368 90.968 C 165.027 91.695,165.108 91.998,166.457 91.300 C 167.049 90.994,167.534 90.667,167.534 90.574 C 167.534 90.343,167.495 90.356,166.368 90.968 M156.323 96.349 C 154.982 97.076,155.063 97.379,156.413 96.682 C 157.004 96.376,157.489 96.049,157.489 95.955 C 157.489 95.724,157.450 95.737,156.323 96.349 M146.278 101.730 C 144.937 102.457,145.019 102.760,146.368 102.063 C 146.960 101.757,147.444 101.430,147.444 101.336 C 147.444 101.105,147.405 101.118,146.278 101.730 M181.525 102.202 C 181.525 102.543,183.278 104.214,183.418 104.007 C 183.474 103.924,183.071 103.423,182.522 102.893 C 181.974 102.363,181.525 102.052,181.525 102.202 M141.614 104.241 C 140.273 104.969,140.355 105.272,141.704 104.574 C 142.296 104.268,142.780 103.941,142.780 103.847 C 142.780 103.616,142.742 103.629,141.614 104.241 M185.014 104.295 C 185.651 104.374,186.781 104.375,187.526 104.298 C 188.270 104.220,187.749 104.155,186.368 104.154 C 184.987 104.152,184.378 104.216,185.014 104.295 M193.636 104.648 C 194.083 104.734,194.728 104.731,195.071 104.641 C 195.414 104.551,195.049 104.481,194.260 104.485 C 193.471 104.489,193.190 104.563,193.636 104.648 M131.570 109.622 C 130.228 110.350,130.310 110.653,131.659 109.955 C 132.251 109.649,132.735 109.322,132.735 109.228 C 132.735 108.998,132.697 109.011,131.570 109.622 M121.525 115.003 C 120.184 115.731,120.265 116.034,121.614 115.336 C 122.206 115.030,122.691 114.703,122.691 114.610 C 122.691 114.379,122.652 114.392,121.525 115.003 M242.152 120.285 C 242.152 120.366,243.283 121.184,244.664 122.103 C 246.045 123.021,247.175 123.697,247.175 123.604 C 247.175 123.511,246.247 122.811,245.112 122.049 C 242.600 120.361,242.152 120.094,242.152 120.285 M112.370 122.332 C 112.370 123.022,112.444 123.305,112.534 122.960 C 112.625 122.614,112.625 122.049,112.534 121.704 C 112.444 121.359,112.370 121.641,112.370 122.332 M112.646 124.091 C 112.646 124.495,114.141 125.775,115.157 126.241 C 115.926 126.593,115.953 126.586,115.350 126.196 C 114.963 125.945,114.196 125.308,113.646 124.781 C 113.096 124.254,112.646 123.943,112.646 124.091 M118.386 127.874 C 118.386 127.973,118.870 128.304,119.462 128.610 C 120.054 128.916,120.538 129.086,120.538 128.987 C 120.538 128.888,120.054 128.557,119.462 128.251 C 118.870 127.945,118.386 127.775,118.386 127.874 M260.269 134.888 C 262.631 137.256,264.643 139.193,264.742 139.193 C 264.841 139.193,262.989 137.256,260.628 134.888 C 258.266 132.520,256.253 130.583,256.155 130.583 C 256.056 130.583,257.908 132.520,260.269 134.888 M128.430 133.255 C 128.430 133.354,128.915 133.685,129.507 133.991 C 130.099 134.297,130.583 134.467,130.583 134.368 C 130.583 134.270,130.099 133.938,129.507 133.632 C 128.915 133.326,128.430 133.156,128.430 133.255 M138.475 138.636 C 138.475 138.735,138.960 139.066,139.552 139.372 C 140.143 139.678,140.628 139.848,140.628 139.749 C 140.628 139.651,140.143 139.320,139.552 139.013 C 138.960 138.707,138.475 138.538,138.475 138.636 M185.561 140.175 C 186.695 140.247,188.552 140.247,189.686 140.175 C 190.821 140.104,189.892 140.046,187.623 140.046 C 185.354 140.046,184.426 140.104,185.561 140.175 M182.243 141.165 C 181.781 141.657,181.470 142.120,181.553 142.193 C 181.636 142.267,182.080 141.864,182.538 141.298 C 183.566 140.032,183.385 139.950,182.243 141.165 M181.315 149.417 C 181.316 153.166,181.369 154.651,181.434 152.717 C 181.498 150.783,181.498 147.716,181.433 145.901 C 181.368 144.086,181.315 145.668,181.315 149.417 M148.520 144.017 C 148.520 144.116,149.004 144.447,149.596 144.753 C 150.188 145.059,150.673 145.229,150.673 145.131 C 150.673 145.032,150.188 144.701,149.596 144.395 C 149.004 144.089,148.520 143.919,148.520 144.017 M153.184 146.529 C 153.184 146.627,153.668 146.958,154.260 147.265 C 154.852 147.571,155.336 147.740,155.336 147.642 C 155.336 147.543,154.852 147.212,154.260 146.906 C 153.668 146.600,153.184 146.430,153.184 146.529 M218.834 147.964 C 218.834 148.062,219.318 148.393,219.910 148.700 C 220.502 149.006,220.987 149.175,220.987 149.077 C 220.987 148.978,220.502 148.647,219.910 148.341 C 219.318 148.035,218.834 147.865,218.834 147.964 M272.858 150.045 C 273.586 151.179,274.249 152.108,274.331 152.108 C 274.572 152.108,273.274 150.028,272.368 148.963 C 271.909 148.424,272.130 148.910,272.858 150.045 M223.139 150.422 C 223.139 150.504,224.067 151.167,225.202 151.895 C 226.336 152.623,226.823 152.844,226.284 152.385 C 225.218 151.480,223.139 150.182,223.139 150.422 M163.229 151.910 C 163.229 152.008,163.713 152.340,164.305 152.646 C 164.897 152.952,165.381 153.122,165.381 153.023 C 165.381 152.924,164.897 152.593,164.305 152.287 C 163.713 151.981,163.229 151.811,163.229 151.910 M231.749 156.951 C 232.418 157.641,233.047 158.206,233.145 158.206 C 233.244 158.206,232.777 157.641,232.108 156.951 C 231.438 156.260,230.810 155.695,230.711 155.695 C 230.613 155.695,231.080 156.260,231.749 156.951 M173.274 157.291 C 173.274 157.390,173.758 157.721,174.350 158.027 C 174.942 158.333,175.426 158.503,175.426 158.404 C 175.426 158.305,174.942 157.974,174.350 157.668 C 173.758 157.362,173.274 157.192,173.274 157.291 M237.130 162.265 C 237.130 162.326,237.655 162.851,238.296 163.431 L 239.462 164.484 238.408 163.318 C 237.426 162.232,237.130 161.988,237.130 162.265 M246.888 176.315 C 247.318 177.199,247.730 177.860,247.806 177.785 C 247.968 177.622,246.518 174.709,246.275 174.709 C 246.183 174.709,246.459 175.431,246.888 176.315 M288.872 194.081 C 288.872 194.771,288.946 195.054,289.037 194.709 C 289.127 194.363,289.127 193.798,289.037 193.453 C 288.946 193.108,288.872 193.390,288.872 194.081 M289.255 199.103 C 289.255 200.188,289.323 200.632,289.405 200.090 C 289.487 199.547,289.487 198.659,289.405 198.117 C 289.323 197.574,289.255 198.018,289.255 199.103 M253.743 204.305 C 253.745 205.489,253.812 205.930,253.892 205.285 C 253.972 204.640,253.970 203.672,253.889 203.133 C 253.807 202.594,253.741 203.121,253.743 204.305 M122.332 204.942 C 122.332 205.011,122.857 205.451,123.498 205.920 C 124.219 206.449,124.470 206.535,124.155 206.148 C 123.677 205.559,122.332 204.670,122.332 204.942 M289.255 209.507 C 289.255 210.592,289.323 211.036,289.405 210.493 C 289.487 209.951,289.487 209.063,289.405 208.520 C 289.323 207.978,289.255 208.422,289.255 209.507 M253.357 210.224 C 253.357 210.915,253.431 211.197,253.521 210.852 C 253.611 210.507,253.611 209.942,253.521 209.596 C 253.431 209.251,253.357 209.534,253.357 210.224 M89.769 213.453 C 89.769 214.143,89.843 214.426,89.933 214.081 C 90.024 213.735,90.024 213.170,89.933 212.825 C 89.843 212.480,89.769 212.762,89.769 213.453 M246.710 233.015 C 246.181 234.094,245.824 234.978,245.917 234.978 C 246.159 234.978,247.968 231.346,247.807 231.185 C 247.733 231.112,247.240 231.935,246.710 233.015 M237.646 246.547 L 236.592 247.713 237.758 246.659 C 238.399 246.080,238.924 245.555,238.924 245.493 C 238.924 245.216,238.628 245.460,237.646 246.547 M144.036 249.686 C 146.002 251.659,147.691 253.274,147.789 253.274 C 147.888 253.274,146.360 251.659,144.395 249.686 C 142.429 247.713,140.740 246.099,140.641 246.099 C 140.543 246.099,142.070 247.713,144.036 249.686 M231.547 252.646 L 230.493 253.812 231.659 252.758 C 232.746 251.776,232.990 251.480,232.713 251.480 C 232.651 251.480,232.126 252.004,231.547 252.646 M272.516 259.731 C 271.598 261.112,270.922 262.242,271.015 262.242 C 271.108 262.242,271.808 261.314,272.570 260.179 C 274.258 257.667,274.524 257.220,274.334 257.220 C 274.253 257.220,273.435 258.350,272.516 259.731 M107.265 261.525 C 107.686 262.117,108.112 262.601,108.210 262.601 C 108.309 262.601,108.045 262.117,107.623 261.525 C 107.202 260.933,106.776 260.448,106.678 260.448 C 106.579 260.448,106.843 260.933,107.265 261.525 M158.565 260.626 C 158.565 260.867,162.196 262.677,162.357 262.515 C 162.431 262.442,161.608 261.949,160.528 261.419 C 159.448 260.889,158.565 260.532,158.565 260.626 M187.548 268.607 C 188.789 268.677,190.726 268.676,191.853 268.605 C 192.979 268.535,191.964 268.477,189.596 268.478 C 187.229 268.478,186.307 268.537,187.548 268.607 M264.551 270.224 L 263.498 271.390 264.664 270.336 C 265.305 269.757,265.830 269.232,265.830 269.171 C 265.830 268.893,265.534 269.137,264.551 270.224 M114.978 271.211 C 115.748 272.000,116.460 272.646,116.558 272.646 C 116.657 272.646,116.107 272.000,115.336 271.211 C 114.566 270.422,113.854 269.776,113.756 269.776 C 113.657 269.776,114.207 270.422,114.978 271.211 M260.090 274.978 C 258.620 276.457,257.498 277.668,257.596 277.668 C 257.695 277.668,258.978 276.457,260.448 274.978 C 261.918 273.498,263.040 272.287,262.942 272.287 C 262.843 272.287,261.560 273.498,260.090 274.978 M122.332 278.565 C 123.001 279.256,123.630 279.821,123.728 279.821 C 123.827 279.821,123.360 279.256,122.691 278.565 C 122.021 277.874,121.393 277.309,121.294 277.309 C 121.196 277.309,121.662 277.874,122.332 278.565 M255.224 279.552 L 254.170 280.717 255.336 279.664 C 255.978 279.084,256.502 278.560,256.502 278.498 C 256.502 278.221,256.206 278.465,255.224 279.552 M140.987 291.820 C 140.987 291.919,141.471 292.250,142.063 292.556 C 142.655 292.862,143.139 293.032,143.139 292.933 C 143.139 292.835,142.655 292.503,142.063 292.197 C 141.471 291.891,140.987 291.721,140.987 291.820 M181.435 304.110 C 181.879 304.195,182.605 304.195,183.049 304.110 C 183.493 304.024,183.130 303.954,182.242 303.954 C 181.354 303.954,180.991 304.024,181.435 304.110 M195.785 304.110 C 196.229 304.195,196.955 304.195,197.399 304.110 C 197.843 304.024,197.480 303.954,196.592 303.954 C 195.704 303.954,195.341 304.024,195.785 304.110 " stroke="none" fill="#dc8414" fill-rule="evenodd"></path></g></svg>