<svg id="svg" version="1.1" xmlns="http://www.w3.org/2000/svg" xmlns:xlink="http://www.w3.org/1999/xlink" width="400" height="571.4863498483317" viewBox="0, 0, 400,571.4863498483317"><g id="svgg"><path id="path0" d="M196.800 93.865 C 183.661 95.153,172.971 97.241,164.400 100.193 C 162.750 100.762,160.584 101.464,159.587 101.754 C 157.566 102.342,151.535 104.865,146.476 107.240 C 144.648 108.098,143.043 108.800,142.908 108.800 C 142.773 108.800,142.379 109.055,142.031 109.367 C 141.684 109.680,140.228 110.555,138.796 111.314 C 136.474 112.543,127.212 118.508,124.375 120.600 C 120.018 123.815,116.449 126.749,113.198 129.791 C 111.547 131.336,109.297 133.428,108.198 134.440 C 104.360 137.973,98.396 144.610,96.351 147.623 C 95.774 148.473,95.189 149.056,95.051 148.918 C 94.913 148.780,94.800 148.862,94.800 149.100 C 94.800 149.338,93.296 151.697,91.457 154.341 C 84.331 164.589,78.624 175.927,74.614 187.800 C 73.351 191.540,72.169 194.960,71.988 195.400 C 71.806 195.840,71.539 196.920,71.393 197.800 C 71.247 198.680,70.942 199.625,70.715 199.900 C 70.488 200.175,70.436 200.400,70.600 200.400 C 70.764 200.400,70.707 200.630,70.475 200.910 C 70.242 201.191,69.948 202.226,69.821 203.210 C 69.695 204.195,69.425 205.710,69.220 206.578 C 69.016 207.446,68.931 208.288,69.031 208.450 C 69.131 208.612,69.016 208.867,68.774 209.016 C 68.533 209.165,68.440 209.707,68.569 210.219 C 68.698 210.732,68.640 211.252,68.441 211.374 C 68.243 211.497,68.054 212.183,68.022 212.899 C 67.892 215.811,67.786 216.610,67.502 216.822 C 67.338 216.944,67.115 218.998,67.006 221.385 C 66.897 223.772,66.716 225.817,66.604 225.929 C 66.492 226.042,66.402 252.158,66.404 283.967 C 66.408 339.767,66.553 347.892,67.644 353.600 C 67.876 354.810,68.160 356.790,68.276 358.000 C 68.393 359.210,68.609 360.290,68.757 360.400 C 68.905 360.510,69.030 360.870,69.033 361.200 C 69.047 362.567,69.702 365.778,70.402 367.916 C 71.073 369.963,71.440 371.372,71.778 373.200 C 71.839 373.530,72.018 374.101,72.175 374.469 C 72.333 374.837,72.498 375.377,72.542 375.669 C 72.586 375.961,72.733 376.380,72.867 376.600 C 73.002 376.820,73.592 378.530,74.178 380.400 C 76.644 388.258,83.114 402.249,87.218 408.600 C 92.588 416.907,98.146 424.512,100.955 427.396 C 101.860 428.324,103.341 429.875,104.246 430.842 C 106.665 433.425,114.361 440.782,116.338 442.400 C 117.278 443.170,118.442 444.140,118.924 444.556 C 123.400 448.416,138.376 458.363,139.300 458.089 C 139.465 458.040,139.600 458.158,139.600 458.352 C 139.600 458.680,145.222 461.560,149.800 463.576 C 150.900 464.061,152.119 464.628,152.509 464.838 C 152.899 465.047,154.249 465.587,155.509 466.037 C 156.769 466.488,158.160 467.011,158.600 467.198 C 161.926 468.618,170.305 471.053,177.000 472.546 C 180.838 473.401,183.265 473.804,192.000 475.032 C 210.873 477.687,243.392 473.306,259.400 465.951 C 259.840 465.749,260.611 465.506,261.113 465.412 C 261.616 465.318,263.236 464.633,264.713 463.890 C 266.191 463.147,268.430 462.129,269.688 461.628 C 270.947 461.127,272.836 460.105,273.887 459.358 C 274.938 458.611,275.919 458.000,276.067 458.000 C 277.109 458.000,294.480 446.301,295.294 445.052 C 295.456 444.803,295.591 444.758,295.594 444.951 C 295.600 445.304,296.146 444.838,302.571 439.000 C 311.527 430.861,318.161 423.065,325.035 412.600 C 326.336 410.620,327.516 408.910,327.657 408.800 C 327.965 408.561,330.147 404.772,331.114 402.800 C 331.491 402.030,331.980 401.202,332.200 400.960 C 332.420 400.719,333.479 398.649,334.554 396.360 C 335.629 394.072,336.670 391.878,336.867 391.485 C 339.543 386.145,343.929 372.011,345.769 362.800 C 348.291 350.171,348.200 353.099,348.200 284.400 C 348.200 218.103,348.289 222.136,346.579 210.800 C 345.619 204.438,342.407 192.035,340.461 187.175 C 340.246 186.639,339.677 185.120,339.196 183.800 C 338.096 180.780,337.965 180.450,336.411 176.800 C 334.789 172.991,328.810 161.858,327.711 160.600 C 327.119 159.923,321.200 151.151,321.200 150.951 C 321.200 150.848,320.750 150.314,320.200 149.764 C 319.650 149.214,319.200 148.605,319.200 148.410 C 319.200 148.216,318.975 147.819,318.700 147.528 C 318.425 147.237,317.492 146.099,316.626 144.999 C 308.898 135.186,297.728 125.209,285.600 117.290 C 282.190 115.063,279.085 112.962,278.700 112.621 C 278.315 112.279,278.000 112.103,278.000 112.229 C 278.000 112.354,277.715 112.173,277.368 111.825 C 277.020 111.477,276.570 111.295,276.368 111.420 C 276.165 111.545,276.000 111.457,276.000 111.224 C 276.000 110.991,275.816 110.800,275.592 110.800 C 275.368 110.800,274.468 110.348,273.592 109.795 C 272.716 109.242,271.997 108.927,271.994 109.095 C 271.991 109.263,271.837 109.163,271.654 108.873 C 271.470 108.584,271.068 108.297,270.760 108.236 C 270.452 108.175,268.091 107.107,265.512 105.863 C 262.934 104.618,260.637 103.600,260.407 103.600 C 260.177 103.600,259.677 103.421,259.295 103.203 C 256.826 101.792,239.123 96.711,233.600 95.828 C 222.199 94.007,217.037 93.594,206.600 93.668 C 201.980 93.701,197.570 93.790,196.800 93.865 M224.400 189.048 C 225.390 189.514,226.560 190.282,227.000 190.753 C 227.440 191.224,228.106 191.927,228.480 192.316 C 230.398 194.308,230.782 196.220,230.791 203.824 C 230.802 212.297,230.542 211.737,235.400 213.790 C 237.380 214.626,239.567 215.556,240.260 215.855 C 242.223 216.703,242.241 216.692,247.641 211.390 C 254.627 204.531,258.482 203.090,263.493 205.464 C 266.344 206.814,285.208 225.694,286.558 228.548 C 287.697 230.955,288.088 235.131,287.266 236.120 C 287.047 236.384,286.856 236.737,286.842 236.904 C 286.756 237.915,285.255 239.825,282.203 242.807 C 280.293 244.673,278.007 247.057,277.124 248.104 L 275.519 250.008 277.816 255.604 L 280.113 261.200 287.756 261.204 C 296.465 261.208,297.972 261.601,300.907 264.634 C 303.948 267.776,304.060 268.550,303.922 285.573 L 303.800 300.600 302.341 302.843 C 299.389 307.383,297.569 308.068,287.652 308.367 L 279.904 308.600 279.141 310.600 C 278.359 312.653,278.263 312.882,276.859 316.056 C 275.254 319.682,275.110 319.328,280.292 324.494 C 285.459 329.647,286.007 330.238,286.037 330.692 C 286.048 330.861,286.315 331.285,286.629 331.632 C 286.944 331.980,287.081 332.385,286.934 332.532 C 286.787 332.680,286.838 332.800,287.048 332.800 C 288.192 332.800,287.708 338.637,286.341 341.315 C 285.271 343.413,266.058 362.539,263.842 363.712 C 258.904 366.326,254.853 364.855,247.698 357.849 L 242.396 352.658 236.598 354.994 L 230.800 357.330 230.802 364.765 C 230.805 375.040,229.942 377.169,224.644 379.959 L 222.287 381.200 207.777 381.200 C 191.857 381.200,191.513 381.154,188.109 378.558 C 185.047 376.223,184.623 374.741,184.400 365.609 L 184.200 357.418 179.067 355.343 C 176.244 354.202,173.829 353.163,173.701 353.034 C 173.018 352.351,171.778 353.271,166.829 358.134 C 155.864 368.907,153.666 368.098,131.707 345.200 C 125.003 338.210,125.581 333.569,134.249 324.781 C 136.972 322.021,139.200 319.579,139.200 319.355 C 139.200 319.131,138.243 316.620,137.074 313.774 L 134.948 308.600 127.174 308.365 C 118.855 308.113,117.681 307.837,114.939 305.484 C 114.046 304.717,111.502 300.757,111.352 299.900 C 111.324 299.735,111.275 299.510,111.245 299.400 C 110.938 298.290,111.271 270.266,111.601 269.398 C 111.833 268.788,111.936 268.203,111.830 268.097 C 111.725 267.991,111.855 267.664,112.119 267.369 C 112.384 267.074,113.216 266.032,113.969 265.053 C 116.466 261.806,117.788 261.419,126.860 261.277 L 134.720 261.154 136.387 257.077 C 137.305 254.835,138.313 252.433,138.627 251.740 C 139.527 249.760,139.460 249.645,134.584 244.793 C 128.195 238.435,127.394 237.118,127.420 233.009 C 127.448 228.451,128.014 227.668,139.376 216.480 C 155.049 201.047,156.469 200.825,167.836 212.028 C 170.276 214.433,172.495 216.400,172.766 216.400 C 173.395 216.400,183.226 212.407,183.922 211.869 C 184.322 211.560,184.430 209.771,184.382 204.232 C 184.347 200.255,184.438 196.640,184.585 196.200 C 185.748 192.707,188.437 189.943,191.875 188.708 C 195.062 187.562,221.841 187.842,224.400 189.048 M200.732 246.786 C 180.115 250.525,166.228 270.255,169.581 291.043 C 170.368 295.923,173.431 303.801,175.023 305.040 C 175.333 305.281,175.496 305.571,175.384 305.683 C 175.272 305.794,175.455 306.114,175.790 306.392 C 176.126 306.670,176.400 307.152,176.400 307.462 C 176.400 307.771,176.670 308.129,177.000 308.255 C 177.330 308.382,177.600 308.736,177.600 309.043 C 177.600 309.349,177.741 309.600,177.913 309.600 C 178.086 309.600,179.481 310.824,181.013 312.320 C 192.221 323.262,210.353 326.216,224.058 319.333 C 225.080 318.820,226.029 318.400,226.167 318.400 C 226.395 318.400,229.016 316.770,230.349 315.800 C 230.652 315.580,231.525 314.815,232.289 314.100 C 233.054 313.385,233.815 312.800,233.981 312.800 C 234.147 312.800,235.127 311.724,236.160 310.409 C 237.193 309.095,238.266 307.790,238.545 307.509 C 244.071 301.957,247.257 284.762,244.607 274.800 C 243.844 271.933,240.072 263.600,239.537 263.600 C 239.352 263.600,239.197 263.375,239.193 263.100 C 239.179 262.191,234.250 256.703,231.513 254.550 C 223.424 248.187,210.700 244.978,200.732 246.786 " stroke="none" fill="#f4f4f4" fill-rule="evenodd"></path><path id="path1" d="M111.578 131.100 L 110.200 132.600 111.700 131.222 C 113.096 129.938,113.384 129.600,113.078 129.600 C 113.012 129.600,112.337 130.275,111.578 131.100 M104.058 138.176 C 102.926 139.373,102.000 140.472,102.000 140.618 C 102.000 140.765,102.557 140.281,103.238 139.542 C 103.918 138.804,104.942 137.705,105.512 137.100 C 106.083 136.495,106.452 136.000,106.333 136.000 C 106.214 136.000,105.190 136.979,104.058 138.176 M70.878 198.450 C 70.648 199.358,70.607 199.943,70.788 199.750 C 71.161 199.352,71.760 196.800,71.480 196.800 C 71.380 196.800,71.109 197.543,70.878 198.450 M179.381 258.100 L 177.800 259.800 179.500 258.219 C 181.081 256.748,181.384 256.400,181.081 256.400 C 181.016 256.400,180.251 257.165,179.381 258.100 M179.400 311.200 C 180.259 312.080,181.037 312.800,181.128 312.800 C 181.465 312.800,178.586 309.666,178.219 309.634 C 178.009 309.615,178.541 310.320,179.400 311.200 M282.975 345.300 L 281.800 346.600 283.100 345.425 C 283.815 344.779,284.400 344.194,284.400 344.125 C 284.400 343.816,284.070 344.088,282.975 345.300 M273.775 354.500 L 272.600 355.800 273.900 354.625 C 274.615 353.979,275.200 353.394,275.200 353.325 C 275.200 353.016,274.870 353.288,273.775 354.500 M70.619 369.801 C 70.775 370.460,71.057 371.168,71.245 371.373 C 71.432 371.578,71.415 371.149,71.205 370.419 C 70.718 368.718,70.244 368.219,70.619 369.801 M103.200 430.200 C 104.172 431.190,105.042 432.000,105.135 432.000 C 105.473 432.000,102.189 428.474,101.817 428.438 C 101.606 428.417,102.228 429.210,103.200 430.200 M107.000 434.000 C 107.859 434.880,108.652 435.600,108.762 435.600 C 108.872 435.600,108.259 434.880,107.400 434.000 C 106.541 433.120,105.748 432.400,105.638 432.400 C 105.528 432.400,106.141 433.120,107.000 434.000 " stroke="none" fill="#f8f4f4" fill-rule="evenodd"></path></g></svg>