<svg width="1173" height="1307" xmlns="http://www.w3.org/2000/svg" preserveAspectRatio="xMidYMid meet">

 <g>
  <title>Layer 1</title>
  <g id="svg_1" fill="#000000" transform="translate(0 1307) scale(0.1 -0.1)">
   <path fill="#6f6f6f" id="svg_2" d="m2166,9474c-9,-24 -7,-1227 2,-1242c7,-10 733,-12 3598,-10l3589,3l0,630l0,630l-3591,3c-3269,2 -3592,1 -3598,-14z"/>
   <path fill="#6f6f6f" id="svg_3" d="m2171,7086c-8,-9 -10,-183 -9,-632l3,-619l2375,0l2375,0l3,624c2,493 0,626 -10,633c-7,4 -1073,8 -2369,8c-1976,0 -2358,-2 -2368,-14z"/>
   <path fill="#6f6f6f" id="svg_4" d="m2165,4688c-3,-7 -4,-290 -3,-628l3,-615l1490,0l1490,0l0,625l0,625l-1488,3c-1185,2 -1489,0 -1492,-10z"/>
  </g>
 </g>
</svg>