<svg id="svg" version="1.1" xmlns="http://www.w3.org/2000/svg" xmlns:xlink="http://www.w3.org/1999/xlink" width="400" height="412.50831669993346" viewBox="0, 0, 400,412.50831669993346"><g id="svgg"><path id="path0" d="M148.370 108.085 C 108.541 111.881,76.938 143.808,73.194 184.032 C 72.715 189.178,72.833 257.054,73.329 261.817 C 78.699 313.365,129.060 347.625,179.199 333.840 C 193.554 329.894,208.192 321.062,217.764 310.572 C 220.056 308.061,220.144 308.247,216.026 306.902 C 188.191 297.815,166.283 273.058,160.711 244.391 C 160.116 241.332,160.047 241.152,159.506 241.286 C 155.730 242.226,147.091 238.813,142.912 234.731 C 128.551 220.702,137.031 197.454,157.328 195.211 L 158.834 195.044 158.959 177.429 C 159.093 158.531,159.184 157.027,160.623 149.857 C 163.254 136.756,169.009 124.436,177.329 114.092 C 180.162 110.571,180.225 110.937,176.647 110.084 C 167.936 108.007,157.169 107.246,148.370 108.085 " stroke="none" fill="#f4f4f4" fill-rule="evenodd"></path><path id="path1" d="M233.799 82.794 C 214.861 84.760,197.425 93.052,183.566 106.681 C 178.942 111.228,179.016 110.988,181.969 111.904 C 211.412 121.043,233.827 146.886,239.104 177.778 C 239.575 180.537,252.959 230.816,253.822 233.067 C 253.922 233.328,252.477 233.400,247.134 233.400 L 240.319 233.400 240.319 243.244 L 240.319 253.089 227.561 253.158 L 214.802 253.227 215.559 255.109 C 218.855 263.312,227.188 270.072,235.529 271.308 C 238.308 271.720,238.157 271.619,237.880 272.869 C 235.538 283.462,229.282 296.037,221.597 305.603 C 220.444 307.038,219.562 308.273,219.636 308.348 C 219.853 308.564,222.362 309.191,225.815 309.891 C 274.800 319.822,321.591 284.975,326.021 235.263 C 326.655 228.149,326.233 158.339,325.530 153.959 C 318.318 109.047,278.495 78.152,233.799 82.794 M201.061 188.089 C 188.478 192.578,191.363 210.778,204.657 210.778 C 217.001 210.778,220.851 194.235,209.780 188.763 C 207.284 187.530,203.459 187.234,201.061 188.089 " stroke="none" fill="#4c4c4c" fill-rule="evenodd"></path></g></svg>